<?xml version="1.0" standalone="no"?><!DOCTYPE svg PUBLIC "-//W3C//DTD SVG 1.1//EN" "http://www.w3.org/Graphics/SVG/1.1/DTD/svg11.dtd"><svg t="1603209820096" class="icon" viewBox="0 0 1024 1024" version="1.1" xmlns="http://www.w3.org/2000/svg" p-id="7060" xmlns:xlink="http://www.w3.org/1999/xlink" width="50" height="50"><defs><style type="text/css"></style></defs><path d="M484.043 308.071h191.08v85.385h-191.08V308.07zM881.189 126.62c-8.741 0.361-17.399 0.444-25.862 0.444h-0.056c-222.298 0-320.28-101.867-321.03-102.727L511.986 0 489.76 24.336c-0.971 1.027-104.31 110.553-346.976 102.283l-31.19-1.026v461.913c0 120.903 40.403 297.332 389.46 432.304l10.933 4.19 10.878-4.19c349.14-134.972 389.543-311.401 389.543-432.304V125.593l-31.218 1.026z m-96.345 553.319c-10.684 14.818-19.314 27.555-25.862 38.21l-5.828 9.519-9.546-5.772c-55.137-33.438-100.202-76.976-134.389-129.81v172.987h-60.854V588.754c-39.487 60.937-87.188 109.165-142.159 143.602l-8.352 5.217-6.272-7.603c-7.825-9.518-17.482-20.063-28.72-31.274l-1.887-1.914v65.654h-60.299V501.428a820.975 820.975 0 0 1-26.889 41.623l-12.764 18.481-7.104-21.311a552.724 552.724 0 0 0-15.984-42.262l-2.358-5.578 3.385-5.05c46.064-68.79 82.36-153.453 107.833-251.63l2.914-11.238 60.937 18.12-3.358 10.85c-14.124 45.509-29.691 88.825-46.285 128.812v301.134l4.412-2.414c54.527-30.025 100.369-71.343 136.47-123.04H373.767v-58.19h174.598v-48.561h-64.322v23.67h-62.408V250.409H737.53v220.689h-62.407v-19.98h-65.905v48.561h173.516v58.19h-133.53c30.83 43.567 74.896 78.947 131.282 105.336l12.265 5.744-7.908 10.989z" p-id="7061" fill="#00a907"></path></svg>