<?xml version="1.0" encoding="utf-8"?>
<!-- Generator: Adobe Illustrator 23.0.0, SVG Export Plug-In . SVG Version: 6.00 Build 0)  -->

<svg id="图层_1" data-name="图层 1" xmlns="http://www.w3.org/2000/svg" viewBox="0 0 339 79">
	<defs>
		<style>.cls-1{fill:#242424;}.cls-2{fill:#be2327;}</style>
	</defs>
	<title>暂用-LOGO</title>
	<g id="图层_1-2" data-name="图层 1-2">
		<g id="_179286632" data-name=" 179286632">
			<polygon id="_179288072" data-name=" 179288072" class="cls-1"
					 points="110.09 54.72 102.12 54.72 102.12 72.2 96.84 72.2 96.84 54.72 88.93 54.72 88.93 49.51 110.09 49.51 110.09 54.72"/>
			<path id="_179287952" data-name=" 179287952" class="cls-1"
				  d="M133.39,72.26h-7.11L119.66,65V58.28h6.86a1.88,1.88,0,0,0,1.84-1.84,1.63,1.63,0,0,0-.55-1.29,2.5,2.5,0,0,0-1.29-.55h-9V72.08h-5.21V49.51h14.1a6.94,6.94,0,0,1,4.91,11.9,6.52,6.52,0,0,1-4.91,2.08h-1.22Z"/>
			<path id="_179287592" data-name=" 179287592" class="cls-1"
				  d="M156.33,60.79a11.38,11.38,0,0,1-3,7.92,10.09,10.09,0,0,1-14.27.68,8.84,8.84,0,0,1-.69-.68,11.37,11.37,0,0,1-3-7.92V49.51h5.21V60.79a6.93,6.93,0,0,0,1.53,4.3A4.69,4.69,0,0,0,146,66.87a5,5,0,0,0,3.86-1.78,6.41,6.41,0,0,0,1.47-4.3V49.51h5.21Z"/>
			<path id="_179287880" data-name=" 179287880" class="cls-1"
				  d="M180.19,65.21a6.79,6.79,0,0,1-2.09,4.91,6.5,6.5,0,0,1-4.9,2.08H159.09V67H173.2a1.68,1.68,0,0,0,1.28-.55,1.76,1.76,0,0,0,.56-1.29,1.9,1.9,0,0,0-.56-1.35,2,2,0,0,0-1.28-.55H166a6.75,6.75,0,0,1-4.91-2.09,6.5,6.5,0,0,1-2.08-4.9,7.12,7.12,0,0,1,7-7h14.11v5.22H166a1.67,1.67,0,0,0-1.29.55,1.78,1.78,0,0,0-.55,1.29,1.7,1.7,0,0,0,.55,1.29,1.79,1.79,0,0,0,1.29.55h7.18a7.12,7.12,0,0,1,7,7Z"/>
			<polygon id="_179287640" data-name=" 179287640" class="cls-1"
					 points="200.49 54.54 192.57 54.54 192.57 72.02 187.36 72.02 187.36 54.54 179.45 54.54 179.45 49.33 200.49 49.33 200.49 54.54"/>
			<path id="_179288096" data-name=" 179288096" class="cls-1"
				  d="M246.42,72.26h-8.09a11.31,11.31,0,0,1-8-3.31,10.69,10.69,0,0,1-3.25-8,11.28,11.28,0,0,1,3.25-8,10.69,10.69,0,0,1,8-3.25h8.09v5.15h-8.09a5.76,5.76,0,0,0-4.3,1.78,5.66,5.66,0,0,0-1.78,4.3A5.74,5.74,0,0,0,234,65.15a5.66,5.66,0,0,0,4.3,1.78h8.09Z"/>
			<polygon id="_179287976" data-name=" 179287976" class="cls-1"
					 points="268.62 72.2 249.12 72.2 249.12 49.51 268.62 49.51 268.62 54.72 254.39 54.72 254.39 58.22 265.43 58.22 265.43 63.49 254.39 63.49 254.39 67.05 268.62 67.05 268.62 72.2"/>
			<polygon id="_179287856" data-name=" 179287856" class="cls-1"
					 points="292.36 72.2 279.05 72.2 276.78 67.05 284.2 67.05 280.21 57.97 273.9 72.2 268.01 72.2 268.01 67.05 270.34 67.05 278.07 49.51 282.24 49.51 292.36 72.2"/>
			<polygon id="_179288240" data-name=" 179288240" class="cls-1"
					 points="316.21 72.2 311 72.2 300.33 59.45 300.33 72.2 295.05 72.2 295.05 49.51 300.33 49.51 311 62.39 311 49.51 316.21 49.51 316.21 72.2"/>
		</g>
	</g>
	<g id="图层_1-2-2" data-name="图层 1-2-2">
		<g id="_179286632-2" data-name=" 179286632-2">
			<path id="_179288216" data-name=" 179288216" class="cls-1"
				  d="M221.89,69.81A11.62,11.62,0,0,1,213.73,73a12.05,12.05,0,0,1-8.46-3.44,11.42,11.42,0,0,1-3.43-8.46,12,12,0,0,1,3.43-8.46l.06-.06a9.87,9.87,0,0,1,8.83,2.08h-.61a6.57,6.57,0,0,0-4.48,1.84A6.36,6.36,0,0,0,207.23,61a6.12,6.12,0,0,0,1,3.43v.13C212,70,217.47,72,221.89,69.81Z"/>
			<path id="_179287712" data-name=" 179287712" class="cls-1"
				  d="M225.57,61a15.35,15.35,0,0,1-.06,1.66,11.38,11.38,0,0,1-3.25,6.62,9.92,9.92,0,0,1-8.89-1.78h.42a7,7,0,0,0,4.67-1.84,6.36,6.36,0,0,0,1.84-4.48,8.35,8.35,0,0,0-.19-1.65,4.33,4.33,0,0,0-.86-1.9,8.72,8.72,0,0,0-.55-.8l-.24-.43c-3.44-4.35-8.28-6.07-12.33-4.35a11,11,0,0,1,7.66-2.76,11.53,11.53,0,0,1,8.47,3.43,1.36,1.36,0,0,0,.43.43,16.82,16.82,0,0,1,1.59,2.15A12,12,0,0,1,225.57,61Z"/>
			<path class="cls-1"
				  d="M222.14,52.76a12.17,12.17,0,0,0-8.47-3.43A11.31,11.31,0,0,0,206,52.09c4-1.72,8.89-.07,12.32,4.29h0l4-3.44Z"/>
			<path class="cls-1"
				  d="M224.1,55.21l-3.93,4.54a13.43,13.43,0,0,1,.13,1.41,6.61,6.61,0,0,1-1.84,4.54,7.37,7.37,0,0,1-4.67,1.9h-.42a9.86,9.86,0,0,0,8.89,1.78,11.43,11.43,0,0,0,3.31-6.62,7.69,7.69,0,0,0,.06-1.66,12.46,12.46,0,0,0-1.29-5.52C224.22,55.46,224.1,55.34,224.1,55.21Z"/>
		</g>
	</g>
	<path class="cls-2" d="M34.5,36.14A5,5,0,0,0,32,45.45l-1,11.44h7.15L37,45.45a5,5,0,0,0-2.51-9.31Z"/>
	<path class="cls-2"
		  d="M34.49,63.82A19.21,19.21,0,0,1,15.75,44.49L16,25.43h0l0-4.76H3L2.88,44.34A32.09,32.09,0,0,0,34.48,76.7h0Z"/>
	<path class="cls-2"
		  d="M34.39,63.82A19.21,19.21,0,0,0,53.12,44.49L52.9,25.43h0c0-1.59,0-3.17.07-4.76H66V44.34A32.1,32.1,0,0,1,34.39,76.7h0Z"/>
	<path class="cls-2"
		  d="M3,4,3,9.75a6.59,6.59,0,0,0,6.63,6.43L27.57,16V31.43H40.63V16l18.71.18A6.59,6.59,0,0,0,66,9.75L66,4Z"/>
	<path class="cls-1"
		  d="M100.66,6h5.53v5.52h-5.53l.07,11.79h5.53v5.45h-5.53V39.45l5.53-.52v5.45l-17.74,1.7V40.55l5.4-.51V28.69H88.45V23.24h5.47l-.08-11.79H88.38V5.93Zm27,9.94L131,38.05h-6.67l-2.48-16.28V46h-6.74V29.87L113.21,38h-7.09l6.24-26.52h-4.82V5.93H131L131,11.45H119.39l-1,4.42Z"/>
	<path class="cls-1"
		  d="M150.89,26.55l5.75-5.67h-5.82l.07-5.52h8.3v-2h-8.37l2.34-7.44h6.67l-.57,1.91H172v5.53h-6v2h6.31v5.52H168.7l4.18,5.67h-6.74L163,22.35l-4.26,4.2Zm.43,19.31v-18h41.36V38.56l.07.22a9.1,9.1,0,0,1-.43,2.8,8.15,8.15,0,0,1-1.2,2.21,5.63,5.63,0,0,1-1.71,1.48,3.81,3.81,0,0,1-2,.51l-36,.08ZM158.2,35.1h27.45V32.89H158.13Zm.07,6h26a1.18,1.18,0,0,0,1.07-.59,2.65,2.65,0,0,0,.42-1.47v-.15H158.2ZM174.16,5.93h19.23v.51l-.07,4.94v9a5.63,5.63,0,0,1-.43,2.43,5.61,5.61,0,0,1-1.14,1.91,7.57,7.57,0,0,1-1.7,1.33,5,5,0,0,1-2.13.44H174v-20Zm12.42,5.45h-5.75V21h4.26a1.39,1.39,0,0,0,1.13-.51,1.77,1.77,0,0,0,.43-1.25Z"/>
	<path class="cls-1"
		  d="M237.77,5.93V9.24h17.95v4.27l.07.89V33.77a5.62,5.62,0,0,1-1.35,3.76,4.28,4.28,0,0,1-3.34,1.55H237.84v6.63h-6.6V39.08h-18V14.4l-.07-.89.07-4.27h18V5.93Zm-6.53,28V14.4H219.75V33.92Zm6.53-19.52-.07,19.52h10.35a1.07,1.07,0,0,0,.78-.37,1,1,0,0,0,.29-.88V14.32Z"/>
	<path class="cls-1"
		  d="M275.58,18.16H284V39.59a1.75,1.75,0,0,0,.49,1.26,1.49,1.49,0,0,0,1.07.51h2.2l-1.85,4.79h-2.69a5.05,5.05,0,0,1-2.06-.44,4.89,4.89,0,0,1-1.7-1.33,5.78,5.78,0,0,1-1.14-1.91,9,9,0,0,1-.42-2.36V23.75h-2.27ZM279.13,15l-3.47-9H283l3.48,9Zm30.86-.3,1.85,7.89.92-2.8h5.39L314,32l3.4,14.14H311.2l-.78-3.24-1.06,3.24H304l4.33-12.67-4.4-18.79h-8.72v4.94h9.15V40a5.49,5.49,0,0,1-.43,2.43,5.59,5.59,0,0,1-1.13,1.91,7.56,7.56,0,0,1-1.71,1.33,5,5,0,0,1-2.12.44h-4.26l1.7-5.45h.14a1.78,1.78,0,0,0,1.14-.52,1.72,1.72,0,0,0,.42-1.25V25.08H295L295,41.14,293,46.08h-6.32l1.92-4.94v-32h13.69l-.71-3.16h6.25l.71,3.16H311l-.71-2.94h5.6l2.34,8.54Z"/>
	<path class="cls-1"
		  d="M324,11.14a5.83,5.83,0,0,1,1.81-4.37,6.14,6.14,0,0,1,10.48,4.37,5.89,5.89,0,0,1-1.8,4.35,6,6,0,0,1-4.35,1.79,6.11,6.11,0,0,1-3-.82,6,6,0,0,1-3.1-5.32Zm11.74,0a5.57,5.57,0,0,0-5.6-5.61,5.46,5.46,0,0,0-4,1.63,5.4,5.4,0,0,0-1.65,4,5.33,5.33,0,0,0,1.68,4,5.63,5.63,0,0,0,7.9,0A5.39,5.39,0,0,0,335.71,11.14Zm-9-3.78h3.35a3,3,0,0,1,1.88.54,1.68,1.68,0,0,1,.7,1.39c0,1-.64,1.61-1.92,1.94l1.81,2.57a4.94,4.94,0,0,0,.39.5.5.5,0,0,0,.27.17l.39.11v.27H332l-2.55-3.5h-.66V14a.54.54,0,0,0,.31.43,1.9,1.9,0,0,0,.72.1v.29h-3.18v-.29l.41,0a.45.45,0,0,0,.37-.31,2.22,2.22,0,0,0,.11-.85V8.85c0-.72-.11-1.09-.32-1.12l-.48-.05ZM328.76,11H329a2.66,2.66,0,0,0,1.62-.43,1.37,1.37,0,0,0,.58-1.15,1.58,1.58,0,0,0-.49-1.19,1.76,1.76,0,0,0-1.25-.46,2.37,2.37,0,0,0-.73.12Z"/>
</svg>