<?xml version="1.0" encoding="utf-8"?>
<!-- Generator: Adobe Illustrator 22.1.0, SVG Export Plug-In . SVG Version: 6.00 Build 0)  -->
<svg version="1.1" id="Layer_1" xmlns="http://www.w3.org/2000/svg" xmlns:xlink="http://www.w3.org/1999/xlink" x="0px" y="0px"
	 viewBox="0 0 1903.9 447.3" style="enable-background:new 0 0 1903.9 447.3;" xml:space="preserve">
<style type="text/css">
	.st0{fill:#BDBDBD;}
	.st1{fill:#00B373;}
</style>
<path class="st0" d="M994.8,86.7c-79.9,0-144.9,65-144.9,144.9s65,144.9,144.9,144.9s144.9-65,144.9-144.9S1074.7,86.7,994.8,86.7z
	 M1014.9,245.1v48.8h-40.4v-48.8c-12.1-7-20.5-20.2-20.5-35.3c0-22.4,18.2-40.6,40.6-40.6c22.4,0,40.6,18.2,40.6,40.6
	C1035.4,224.9,1027.1,238.1,1014.9,245.1z"/>
<path class="st1" d="M991,84.7c-79.9,0-144.9,65-144.9,144.9s65,144.9,144.9,144.9s144.9-65,144.9-144.9S1070.8,84.7,991,84.7z
	 M1011.1,243.1v48.8h-40.4v-48.8c-12.1-7-20.5-20.2-20.5-35.3c0-22.4,18.2-40.6,40.6-40.6c22.4,0,40.6,18.2,40.6,40.6
	C1031.6,222.9,1023.2,236.1,1011.1,243.1z"/>
<path d="M526.9,237.5c0-65.8,45.2-103.2,94.8-103.2c26,0,47,12,61,26l-27.2,33.2c-9.6-8.4-19.4-14.4-32.6-14.4
	c-23,0-42.8,21.2-42.8,56.8c0,36.8,17,57.4,42.2,57.4c15,0,27.2-7.8,35.6-17l27.2,32.6c-16.6,19.4-39.2,29-64.6,29
	C570.2,337.7,526.9,304.5,526.9,237.5z"/>
<path d="M265.9,141.7h53.2l43.4,87.6l18.8,44h1.2c-2.4-21.2-6.6-50.8-6.6-74.8v-56.8h49.4v196.2h-53.2l-43.4-87.8l-18.8-43.8h-1.2
	c2.4,22.4,6.6,50.8,6.6,74.8v56.8h-49.4V141.7z"/>
<path d="M20.4,141.7h126.8v43.4H72.4v31h64v43.4h-64v35h77.8v43.4H20.4V141.7z"/>
<path class="st1" d="M1294.6,311.5l22.9-31.6c11.4,10.5,24.8,17.6,38.1,17.6c16.3,0,27-5.9,27-17.6c0-14-7.3-22.2-46.3-22.2v-35.1
	c31,0,40.5-8.2,40.5-21.1c0-11.2-6.7-17-19.3-17c-12.2,0-21.1,5.3-32.8,15.3l-25.2-30.5c18.1-15.3,37.4-24,60.3-24
	c41,0,67.4,18.8,67.4,52.3c0,17.9-9.9,31.4-29.8,40.1v1.2c21.1,6.4,35.7,21.1,35.7,44.5c0,35.1-33.4,54.5-72,54.5
	C1330.6,337.9,1308.8,328,1294.6,311.5z"/>
<path class="st1" d="M1523.9,244.9c0-67.4,36.9-99.5,76.6-99.5c26.3,0,45.6,11.2,58,23.4l-26.4,29.8c-5.9-6.4-17.6-13-28-13
	c-19.7,0-34.6,14.7-34.6,59.1c0,46.3,14.4,55.7,25.7,55.7c10.5,0,19.9-6.2,19.9-25.7c0-17.9-9.9-22.2-20.6-22.2
	c-8.7,0-17.9,4.6-24.7,17.6l-2.3-31.6c8.9-13.5,26.1-21.1,36.9-21.1c31.6,0,56.2,17.6,56.2,57.3s-29.3,63.2-64.4,63.2
	C1560.8,338.1,1523.9,312.2,1523.9,244.9z"/>
<path class="st1" d="M1752,311.5l22.2-31.6c11.2,9.9,24,17.6,37.4,17.6c17.6,0,27.5-7.6,27.5-24c0-15.8-10.5-24-25.2-24
	c-9.9,0-14.7,1.8-25.7,8.7l-21.6-14l4.6-95.5h110V191h-66.5l-2.3,27c6.4-2.3,11.4-3,17.6-3c32.3,0,59.8,18.1,59.8,57.3
	c0,41.5-32.5,65.6-70.3,65.6C1788.7,337.9,1767.1,326.7,1752,311.5z"/>
<g>
	<path class="st1" d="M893.8,73.3c28.6-18.3,62.6-28.8,99-28.8c53.2,0,101.2,22.6,134.8,58.7l31-22.5
		C1118.4,34.3,1059,4.9,992.8,4.9c-46.5,0-89.7,14.5-125.2,39.2L893.8,73.3z"/>
	<path class="st1" d="M1187.3,122.8l-30.4,22.1c12.8,25.1,20.1,53.5,20.1,83.7c0,41.4-13.7,79.6-36.7,110.4l23,23
		c30.5-37.7,48.8-85.6,48.8-137.9C1212.1,187.5,1203.1,153.1,1187.3,122.8z"/>
	<path class="st1" d="M839.5,330.6c-19.5-29.2-30.9-64.3-30.9-102.1c0-46.9,17.5-89.7,46.4-122.2l-25.6-28.6
		c-34.8,38.8-55.9,90-55.9,146.2c0,48,15.4,92.3,41.5,128.4L839.5,330.6z"/>
	<path class="st1" d="M1104.3,375.1c-30.9,23.6-69.6,37.6-111.5,37.6c-45.6,0-87.3-16.6-119.4-44L849.6,390
		c38.4,33.2,88.5,53.2,143.2,53.2c50.5,0,96.9-17.1,134-45.7L1104.3,375.1z"/>
</g>
</svg>
