<?xml version="1.0" encoding="utf-8"?>
<!-- Generator: Adobe Illustrator 22.1.0, SVG Export Plug-In . SVG Version: 6.00 Build 0)  -->
<svg version="1.1" id="图层_1" xmlns="http://www.w3.org/2000/svg" xmlns:xlink="http://www.w3.org/1999/xlink" x="0px" y="0px"
	 viewBox="0 0 500 500" style="enable-background:new 0 0 500 500;" xml:space="preserve">
<style type="text/css">
	.st0{fill:#2C3C69;}
	.st1{fill:#48A439;}
	.st2{fill:#FFFFFF;}
	.st3{font-family:'MicrosoftYaHeiUI-Bold';}
	.st4{font-size:234.6118px;}
</style>
<path class="st0" d="M462.1,205c-8.2-8.2-17.7-12.3-27.2-12.3H64.4c-10.9,0-20.4,4.1-27.2,12.3c-8.2,8.2-10.9,17.7-10.9,27.2v189.3
	c0,9.5,1.4,19.1,5.4,28.6c2.7,8.2,8.2,16.3,15,23.2s13.6,12.3,21.8,16.3c8.2,4.1,19.1,5.4,30,5.4h301c10.9,0,20.4-1.4,30-5.4
	c9.5-4.1,16.3-9.5,23.2-16.3c6.8-6.8,12.3-15,15-24.5c4.1-9.5,5.4-19.1,5.4-30V232.2C473,221.3,470.2,211.8,462.1,205L462.1,205z"/>
<g>
	<g>
		<path class="st1" d="M148.6,142.9c-1.1,6.5-1.7,13.4-1.7,20.7c-17.7,0-35.4,0-53.1,0c0-10.6,0.8-20.7,2.4-30.2
			c3,0.6,6.1,1.2,9.1,1.8c-0.9,5.6-1.5,11.4-1.9,17.4c4.2,0.3,8.3,0.6,12.5,0.9c0.3-5.1,0.8-10.1,1.6-14.8c3,0.6,6.1,1.1,9.1,1.7
			c-0.7,4.5-1.2,9.1-1.5,13.8c4.3,0.3,8.6,0.6,12.8,1c0.3-4.9,0.8-9.6,1.6-14.1C142.5,141.6,145.6,142.3,148.6,142.9z"/>
		<path class="st1" d="M159.1,111.8c-1,1.9-2,3.8-2.9,5.8c-12.2-1.3-24.7-1-37.4,0.9c-2,0.3-3.5,0.5-4.7,0.6c0,0,0,0.1,0,0.1
			c1.8,0.4,4.5,1.2,8.2,2.4c9.7,3.2,19.3,6.3,29,9.5c-0.6,2.1-1.1,4.2-1.6,6.3c-17.2-4.5-34.5-9-51.7-13.5c0.8-3.8,1.8-7.4,2.8-11
			c12.5-2.7,24.9-3.7,37.1-3.3c2.4,0.1,3.9,0.2,4.6,0.3c0,0,0-0.1,0-0.1c-1.2-0.4-3.5-1.5-6.8-3.1c-9.2-4.6-18.3-9.1-27.5-13.7
			c1.3-2.8,2.6-5.5,4.1-8.2C127.8,94,143.5,102.9,159.1,111.8z"/>
		<path class="st1" d="M173.8,88.9c-0.1,2.8-1.2,5.4-3.3,7.9c-2.7,3.2-6.6,4.5-12.1,3.9c-5.5-0.5-11.8-2.7-18.6-7
			c-7.2-4.6-12.2-9.9-14.3-16.5c-2.2-6.5-1-12.8,3.4-17.9c2.7-3.2,5.7-5.3,8.6-6.2c2.6,2.6,5.3,5.2,7.9,7.8
			c-3.4,0.4-6.3,1.9-8.6,4.5c-2.6,3-3.3,6.6-2,10.5c1.3,3.9,4.3,7.4,8.7,10.6c4.3,3.1,8.3,4.8,12,5.4c3.7,0.5,6.3-0.3,8.2-2.5
			c1.8-2.1,2.6-4.6,2.6-7.9C168.7,83.9,171.3,86.4,173.8,88.9z"/>
		<path class="st1" d="M197.4,73.8c-2,1.1-3.9,2.2-5.8,3.4c-3.8-3.1-7.8-6.1-11.9-8.9c-2.5-1.8-4.4-2.7-5.4-3
			c-1.1-0.3-1.9-0.2-2.5,0.3c-0.6,0.4-1.1,0.9-1.7,1.3c4.4,5.4,8.9,10.8,13.3,16.2c-1.5,1.2-3,2.5-4.5,3.8
			c-12.2-13.2-24.5-26.5-36.7-39.7c3.7-3.3,7.5-6.4,11.5-9.2c8.2-5.9,15.2-4,20.2,4.2c1.9,3.1,3,6.1,3.2,9.1
			c0.2,2.9-0.4,5.5-1.7,7.6c0,0,0.1,0.1,0.1,0.1c1.8-0.2,4.8,1.1,8.9,4.1C188.8,66.4,193.2,70,197.4,73.8z M154.5,48.1
			c3.3,4,6.6,8,9.9,12c1-0.8,2-1.5,3-2.3c1.4-1.1,2.1-2.5,2.1-4.4c0-1.9-0.7-3.8-2-5.7c-2.8-4-6-4.8-9.5-2.3
			C156.7,46.3,155.6,47.2,154.5,48.1z"/>
		<path class="st1" d="M202.2,14.4c-0.9,12.2-0.8,24.2,0.3,36.1c2.5,5.9,4.9,11.8,7.4,17.6c-1.8,0.7-3.6,1.4-5.4,2.2
			c-2.8-5.7-5.5-11.4-8.3-17c-8.2-9-17.2-17.5-27-25.3c3-1.6,6-3.2,9.1-4.6c5.2,5.1,10.2,10.4,14.9,15.8c0.3,0.3,1.1,1.5,2.5,3.5
			c0,0,0.1,0,0.1,0c-0.5-1.5-0.8-2.9-1-4c-0.8-7.1-1.3-14.2-1.5-21.4C196.2,16.2,199.2,15.2,202.2,14.4z"/>
		<path class="st1" d="M223.1,45c1.4,6,2.7,12.1,4.1,18.1c-1.9,0.4-3.8,0.8-5.7,1.3c-4.9-17.1-9.7-34.2-14.6-51.3
			c4.7-1.2,9.4-2.2,14.1-3c10.4-1.7,16.2,3.8,17,14.9c0.5,5.4-0.6,9.9-2.7,13.4c-2.2,3.5-4.9,5.5-8.6,5.9
			C225.4,44.6,224.3,44.8,223.1,45z M217.4,19.7c1.3,5.6,2.5,11.2,3.8,16.8c1.1-0.2,2.1-0.4,3.2-0.6c4.3-0.7,6-3.8,5.2-9.6
			c-0.8-5.6-3.6-8.1-8.5-7.3C219.9,19.3,218.7,19.5,217.4,19.7z"/>
		<path class="st1" d="M270.4,18.4c-3.7-0.5-7.5-0.8-11.2-1c-1,14.6-1.9,29.2-2.9,43.8c-2-0.1-3.9-0.2-5.9-0.2
			c0.1-14.6,0.2-29.3,0.4-43.9c-3.8,0-7.5,0.1-11.2,0.3c-0.2-3.1-0.4-6.2-0.6-9.2c11-0.7,22-0.3,32.9,1.1
			C271.3,12.3,270.9,15.3,270.4,18.4z"/>
		<path class="st1" d="M286.2,11.7c-4.2,17.3-8.3,34.5-12.5,51.8c-1.9-0.4-3.8-0.8-5.8-1.1c3.2-17.5,6.3-34.9,9.5-52.4
			C280.4,10.5,283.3,11,286.2,11.7z"/>
		<path class="st1" d="M285.4,39.6c2.3-8,5.8-14.2,11-18.1c5.1-4,11-4.8,16.9-2.5c5.6,2.2,8.9,6.7,9.5,12.7
			c0.6,6.1-1.4,12.5-5.6,19.4c-4.3,7.2-9.1,12.3-14,15.6c-4.9,3.4-8.9,4.3-12.6,2.8c-3.6-1.4-5.7-4.7-6.7-10.3
			C282.9,53.8,283.3,47.2,285.4,39.6z M293.1,41.2c-1.7,4.9-2.4,9.1-2.2,12.7c0.2,3.6,1.4,5.7,3.7,6.6c2.3,0.9,4.7,0.3,7.5-2
			c2.7-2.2,5.4-5.7,7.9-10.4c2.6-5,3.9-9.2,3.8-12.9c-0.1-3.6-1.7-6.1-4.7-7.3c-3.1-1.2-6.1-0.6-9,2
			C297.1,32.4,294.8,36.2,293.1,41.2z"/>
		<path class="st1" d="M326.1,92.4c-1.4-1.5-2.8-2.9-4.3-4.3c5.2-11.1,9.3-22.9,12.1-35.2c0.4-1.9,0.8-3.4,1.2-4.5
			c0,0-0.1,0-0.1-0.1c-1,1.6-2.6,3.9-5,7c-6.1,8.2-12.2,16.4-18.3,24.6c-1.5-1.1-3.1-2.1-4.6-3.1c9.9-15,19.9-29.9,29.8-44.9
			c2.7,1.7,5.4,3.5,8.1,5.4c-2.2,12.3-5.6,24.3-10,35.6c-0.9,2.3-1.5,3.6-1.8,4.2c0,0,0.1,0,0.1,0.1c0.8-1,2.5-2.9,5-5.5
			c7.1-7.4,14.3-14.8,21.4-22.2c2.1,2,4.1,4,6.1,6.1C352.6,67.9,339.4,80.1,326.1,92.4z"/>
		<path class="st1" d="M339.3,89.6c-0.8,3.3-0.4,6,1.2,8.3c1,1.4,2.3,2.2,4,2.3c1.7,0.1,3.6-0.4,5.7-1.8c2.1-1.4,3.4-3,3.8-4.9
			c0.4-1.9-0.2-3.9-1.6-5.9c-0.6-0.8-1.2-1.7-1.9-2.5c2.3-1.8,4.6-3.6,6.9-5.3c0.6,0.8,1.2,1.6,1.8,2.4c2.9,4,6.3,4.9,10.4,2.2
			c3.8-2.5,4.7-5.6,2.2-9.1c-1.6-2.3-4.2-3.7-7.6-4.2c2.4-2,4.8-3.9,7.3-5.9c3.3,1.1,6.2,3.3,8.6,6.7c2.3,3.4,3.1,7,2.4,10.5
			c-0.7,3.5-3,6.2-6.6,8.3c-6.1,3.5-11.2,3.4-15.3,0.3c0,0-0.1,0.1-0.1,0.1c1,2.4,0.9,4.9-0.4,7.4c-1.3,2.5-3.4,4.5-6.3,6.2
			c-4.5,2.5-8.5,3.5-12,3.2c-3.5-0.3-6.1-1.8-8-4.5c-1.7-2.4-2.4-4.8-2.1-7.4C334.2,93.8,336.7,91.7,339.3,89.6z"/>
		<path class="st1" d="M390.6,122.3c0.9-2.7,1-5.4,0.2-8c-1-3.4-3.5-5.4-7.2-6c-3.7-0.6-7.9,0.2-12.6,2.3c0,0,0,0.1,0.1,0.1
			c4.3,0.2,7.1,2.2,8.3,5.9c1.1,3.3,0.3,6.6-2.1,9.4c-2.5,2.9-6.1,4.8-10.9,6.1c-5.2,1.4-9.8,1.4-13.7,0.3c-3.9-1.1-6.3-2.9-7.3-5.9
			c-1.1-3.3-0.1-6.6,3.1-10.3c3.2-3.7,8.2-7.4,15.1-11c8.1-4.1,15.4-6.2,21.9-5.4c6.5,0.8,11.1,4.5,13.1,11c1.1,3.5,1.4,6.5,0.9,8.8
			C396.6,120.6,393.6,121.4,390.6,122.3z M361.1,115.2c-2.5,1.1-4.5,2.5-6,4c-1.5,1.6-2,3-1.5,4.3c0.5,1.3,1.6,2.1,3.6,2.3
			c1.9,0.2,4.2-0.1,6.7-0.9c5.7-1.9,8.1-4.6,6.9-8.1c-0.5-1.5-1.7-2.5-3.5-2.8C365.3,113.8,363.3,114.2,361.1,115.2z"/>
		<path class="st1" d="M351.7,141.6c3.1-0.7,6.3-1.3,9.4-2c-1.8,3-2.5,5.8-2.1,8.7c0.2,2.2,1.2,3.8,2.8,4.9c1.6,1.1,3.7,1.7,6.4,1.5
			c5.5-0.4,8.1-3.7,7.4-9.8c-0.3-2.2-0.8-4.7-1.7-7.4c9.7-1.5,19.4-2.9,29.1-4.2c1.4,8.9,2.2,18.2,2.4,28c-3,0-6.1,0.1-9.1,0.1
			c-0.1-6.3-0.4-12.4-1.1-18.3c-3.7,0.3-7.5,0.6-11.2,0.9c0.3,1.6,0.6,3.1,0.7,4.5c0.4,4.5-0.9,8.3-3.7,11c-2.8,2.7-6.6,4-11.5,4
			c-5.4,0-9.7-1.5-13.2-3.9c-3.5-2.5-5.3-5.6-5.7-9.6C350.3,146.9,350.6,144.1,351.7,141.6z"/>
	</g>
</g>
<text transform="matrix(1 0 0 1 66.9297 432)" class="st2 st3 st4">SSL</text>
</svg>
