<?xml version="1.0" encoding="utf-8"?>
<!-- Generator: Adobe Illustrator 23.0.0, SVG Export Plug-In . SVG Version: 6.00 Build 0)  -->
<svg version="1.1" id="Layer_1" xmlns="http://www.w3.org/2000/svg" xmlns:xlink="http://www.w3.org/1999/xlink" x="0px" y="0px"
	 viewBox="0 0 2369.6 447.3" style="enable-background:new 0 0 2369.6 447.3;" xml:space="preserve">
<style type="text/css">
	.st0{fill:#C41230;}
</style>
<g>
	<path class="st0" d="M170.5,188.6V236H21.3V37.6h149.2v45.8H81v28.8h72.4v44H81v32.4H170.5z"/>
	<path class="st0" d="M336.9,236h-58v-93c0-7.7-1.2-12.5-3.6-14.7c-2.4-2.1-5.4-3.2-8.9-3.2c-10.6,0-15.8,7.4-15.8,22.1V236h-58
		V88.2h53.8v20.9c7.9-16,22.1-24,42.6-24c10.8,0,19.8,2.1,27.2,6.2c7.4,4.1,12.7,9.4,15.9,16c3.2,6.5,4.8,17.9,4.8,34.1V236z"/>
	<path class="st0" d="M456.5,176.4l49.4,4.2c-2.3,17.2-9.6,31.3-21.7,42.1C472,233.6,455.9,239,435.7,239c-22.6,0-40.9-7.1-55-21.3
		c-14.1-14.2-21.1-32.4-21.1-54.6c0-22.7,7-41.3,21-56c14-14.7,32.2-22,54.6-22c19.9,0,36,5.5,48.5,16.6
		c12.5,11.1,19.7,25.1,21.5,42.1l-50.7,4.2c-2.1-15.6-8-23.4-17.7-23.4c-6.2,0-10.7,2.8-13.6,8.5c-2.9,5.7-4.3,15.5-4.3,29.6
		c0,12.1,1.4,21.1,4.3,26.9c2.9,5.8,7.8,8.7,14.9,8.7C448.4,198.3,454.6,191,456.5,176.4z"/>
	<path class="st0" d="M578.6,236h-55.5V88.2h48.2v30.5c5.5-22.2,18.4-33.3,38.5-33.3c2,0,4.8,0.2,8.4,0.6v51.6
		c-4.1-1-7.7-1.5-10.9-1.5c-19.2,0-28.8,10.7-28.8,32.1V236z"/>
	<path class="st0" d="M780.3,88.2l-58,160.1c-4.5,12.1-10.9,21.6-19.2,28.4c-8.3,6.8-21.2,10.2-38.5,10.2c-4.2,0-13.9-0.4-29.1-1.3
		v-41.1c7.6,1.2,14.5,1.7,20.9,1.7c16.7,0,25-3.7,25-11c0-2.4-0.8-5.8-2.5-10l-53-137h62l24.4,78.9l25.5-78.9H780.3z"/>
	<path class="st0" d="M852.7,282.6h-58V88.2H848v20.9c7.5-16,21.4-24,41.7-24c17.6,0,31.4,6.9,41.4,20.6c10,13.7,15,32.4,15,56
		c0,23.6-5.1,42.4-15.3,56.4c-10.2,14-23.7,20.9-40.5,20.9c-16.5,0-29-6.3-37.6-18.9V282.6z M852.7,181.9c0,6.6,1.5,11.7,4.5,15.3
		c3,3.6,6.7,5.4,11.2,5.4c7,0,11.8-3.2,14.4-9.7c2.6-6.4,3.9-16.3,3.9-29.7c0-15.4-1.5-26.2-4.5-32.5c-3-6.2-7.5-9.4-13.5-9.4
		c-3.6,0-7.1,1.4-10.7,4.2c-3.5,2.8-5.3,7.4-5.3,13.8V181.9z"/>
	<path class="st0" d="M1060.5,88.2v37.6H1031v54.5c0,7.5,1.4,11.9,4.2,13.3c2.8,1.4,5.7,2.1,8.7,2.1c4.6,0,10.2-0.8,16.6-2.5v41.3
		c-11.4,2.2-22.7,3.3-33.7,3.3c-17.8,0-30.9-3.8-39.3-11.5c-8.4-7.7-12.6-19.9-12.6-36.6l0.1-17.3v-46.6h-22.1V88.2H975l0.9-48.1
		l55.1-0.9v49H1060.5z"/>
	<path class="st0" d="M1137.8,31.3v45.9h-58V31.3H1137.8z M1137.8,88.2V236h-58V88.2H1137.8z"/>
	<path class="st0" d="M1240.5,239c-24.5,0-44-7.6-58.4-22.9c-14.4-15.3-21.7-33.2-21.7-53.7c0-22.1,7.5-40.5,22.6-55.2
		c15.1-14.7,34.7-22.1,58.8-22.1c24.3,0,43.9,7.3,58.6,21.8c14.8,14.5,22.2,32.7,22.2,54.6c0,22.1-7.5,40.5-22.5,55.3
		C1285.2,231.6,1265.3,239,1240.5,239z M1241.4,203.8c9,0,14.5-4.7,16.5-14c2-9.3,3-19.1,3-29.3c0-13.9-1.4-23.8-4.2-29.9
		c-2.8-6.1-7.8-9.2-15.1-9.2c-6.7,0-11.6,3.1-14.7,9.4c-3.1,6.3-4.7,16.7-4.7,31.1c0,17,1.6,28.2,4.8,33.6
		C1230.2,201.1,1235,203.8,1241.4,203.8z"/>
	<path class="st0" d="M1489.5,236h-58v-93c0-7.7-1.2-12.5-3.6-14.7c-2.4-2.1-5.4-3.2-8.9-3.2c-10.6,0-15.8,7.4-15.8,22.1V236h-58
		V88.2h53.8v20.9c7.9-16,22.1-24,42.6-24c10.8,0,19.8,2.1,27.2,6.2c7.4,4.1,12.7,9.4,15.9,16c3.2,6.5,4.8,17.9,4.8,34.1V236z"/>
	<path class="st0" d="M1508.3,175.4l51.7-6.4c3.4,18.1,13.1,27.2,29.1,27.2c7.3,0,13.2-1.9,17.7-5.7c4.6-3.8,6.8-8.9,6.8-15.3
		c0-4.3-1.2-8-3.7-11.3c-2.5-3.2-5.1-5.5-7.9-6.8c-2.8-1.3-7.7-2-14.5-2h-24.1v-41.4h20.3c10.8,0,17.8-1.9,20.9-5.8
		c3.1-3.9,4.7-7.9,4.7-12.1c0-5.2-1.9-9.6-5.8-13.1c-3.9-3.5-9-5.2-15.3-5.2c-13.6,0-21.8,7.6-24.8,22.7l-48-7.6
		c4.4-18.6,13.6-32.9,27.7-43c14.1-10.1,30.8-15.1,50.1-15.1c21.7,0,39.1,5.1,52.3,15.3c13.2,10.2,19.8,23.7,19.8,40.7
		c0,10.2-2.8,19-8.4,26.6c-5.6,7.6-12.7,12.6-21.3,15.3c23.8,7.3,35.7,22.8,35.7,46.6c0,19-7.2,33.7-21.7,44.2
		c-14.5,10.5-33.3,15.8-56.3,15.8C1547,239,1518.7,217.8,1508.3,175.4z"/>
	<path class="st0" d="M1841.3,93.7l-50.7,6.1c-1.6-15.9-8-23.8-19.4-23.8c-16.4,0-24.9,17.2-25.4,51.6c7.8-12.2,21.1-18.3,40-18.3
		c17.9,0,32.5,5.8,43.7,17.3c11.2,11.5,16.8,26.4,16.8,44.5c0,19-7.1,35.1-21.3,48.2c-14.2,13.2-32.5,19.8-54.9,19.8
		c-16.4,0-31-3.9-43.7-11.8c-12.8-7.9-22.4-19.5-28.9-34.9c-6.5-15.4-9.7-32.3-9.7-50.6c0-31.2,7.1-56.8,21.4-76.9
		c14.2-20.1,34.5-30.2,60.9-30.2c18.7,0,34.6,5.1,47.6,15.3C1830.7,60.1,1838.6,74.7,1841.3,93.7z M1768.4,198.6
		c6.7,0,12.1-2.3,16-6.8c4-4.6,6-10.1,6-16.7c0-6.5-2-12.2-5.9-17c-3.9-4.8-9.1-7.3-15.5-7.3c-6.6,0-12.1,2.4-16.3,7.2
		c-4.3,4.8-6.4,10.5-6.4,17.2c0,6.5,2,12,6.1,16.6C1756.4,196.3,1761.8,198.6,1768.4,198.6z"/>
	<path class="st0" d="M2006.4,86.6h-83.1l-2.3,28c10.8-7.5,22.7-11.2,35.7-11.2c17.2,0,32.3,5.9,45.2,17.7
		c12.9,11.8,19.3,27.6,19.3,47.4c0,20.8-7.5,37.8-22.5,50.9c-15,13.1-34.2,19.6-57.5,19.6c-20.3,0-38-5.4-52.8-16.1
		c-14.9-10.7-24-25.6-27.4-44.8l51.2-6.2c3.4,14.4,12.6,21.7,27.8,21.7c7.7,0,13.6-2.3,17.9-7c4.3-4.6,6.5-10.3,6.5-17
		c0-7.6-2.5-13.5-7.4-17.7c-4.9-4.3-10.8-6.4-17.6-6.4c-10.1,0-17.8,4.2-23.3,12.5l-45.5-6.4l8.7-113.9h132.4L2006.4,86.6z"/>
</g>
<path class="st0" d="M50,404.2l-7.3,21.6H22.8l31.8-93.7h25.5l33.2,93.7H92l-7.7-21.6H50z M79.9,387.6
	c-6.7-19.8-10.9-32.4-13.2-40.8h-0.1c-2.3,9.2-7,23.9-12.3,40.8H79.9z"/>
<path class="st0" d="M169.4,332.1V388c0,18,9.2,23.3,19.4,23.3c11.6,0,18.9-6.3,18.9-23.3v-55.8h20.3V387c0,32-18.8,40.2-39.4,40.2
	c-21.2,0-39.4-8.5-39.4-39.8v-55.2H169.4z"/>
<path class="st0" d="M298.9,348.7h-28.5v-16.6h77.1v16.6h-28.4v77.1h-20.3V348.7z"/>
<path class="st0" d="M474.9,380c0,26.1-15.7,48.5-46.1,48.5c-29.4,0-44.8-21.4-44.8-48.2c0-27.3,17-48.2,46.1-48.2
	C457.5,332.1,474.9,351.3,474.9,380z M404.9,379.9c0,18.3,8,32.1,24.6,32.1c18,0,24.4-15.1,24.4-31.8c0-17.7-7.3-31.7-24.7-31.7
	C412.3,348.6,404.9,361.7,404.9,379.9z"/>
<path class="st0" d="M583.5,399.7c2.1,9.4,8.9,13.5,19.7,13.5c10.8,0,15.4-4.3,15.4-11.1c0-7.6-4.5-10.9-20.5-14.7
	c-25.5-6-31.8-15.3-31.8-27.9c0-16.3,12.2-27.4,34.4-27.4c24.9,0,34.8,13.4,36.1,27.1h-20.4c-1-5.8-4.2-12-16.3-12
	c-8.2,0-13.2,3.4-13.2,10.1c0,6.5,4,9.2,19.1,12.7c27.3,6.4,33.2,16.6,33.2,29.8c0,17.1-12.9,28.9-37.7,28.9
	c-23.8,0-36.3-11.7-38.6-28.8H583.5z"/>
<path class="st0" d="M689.9,399.7c2.1,9.4,8.9,13.5,19.7,13.5c10.8,0,15.4-4.3,15.4-11.1c0-7.6-4.5-10.9-20.5-14.7
	c-25.5-6-31.8-15.3-31.8-27.9c0-16.3,12.2-27.4,34.4-27.4c24.9,0,34.8,13.4,36.1,27.1h-20.4c-1-5.8-4.2-12-16.3-12
	c-8.2,0-13.2,3.4-13.2,10.1c0,6.5,4,9.2,19.1,12.7c27.3,6.4,33.2,16.6,33.2,29.8c0,17.1-12.9,28.9-37.7,28.9
	c-23.8,0-36.3-11.7-38.6-28.8H689.9z"/>
<path class="st0" d="M795.4,332.1h20.3v77.1h46.7l-2.3,16.6h-64.6V332.1z"/>
<path class="st0" d="M976,399.7c2.1,9.4,8.9,13.5,19.7,13.5c10.8,0,15.4-4.3,15.4-11.1c0-7.6-4.5-10.9-20.5-14.7
	c-25.5-6-31.8-15.3-31.8-27.9c0-16.3,12.2-27.4,34.4-27.4c24.9,0,34.8,13.4,36.1,27.1h-20.4c-1-5.8-4.2-12-16.3-12
	c-8.2,0-13.2,3.4-13.2,10.1c0,6.5,4,9.2,19.1,12.7c27.3,6.4,33.2,16.6,33.2,29.8c0,17.1-12.9,28.9-37.7,28.9
	c-23.8,0-36.3-11.7-38.6-28.8H976z"/>
<path class="st0" d="M1161.2,380c0,26.1-15.7,48.5-46.1,48.5c-29.4,0-44.8-21.4-44.8-48.2c0-27.3,17-48.2,46.1-48.2
	C1143.8,332.1,1161.2,351.3,1161.2,380z M1091.2,379.9c0,18.3,8,32.1,24.6,32.1c18,0,24.4-15.1,24.4-31.8c0-17.7-7.3-31.7-24.7-31.7
	C1098.6,348.6,1091.2,361.7,1091.2,379.9z"/>
<path class="st0" d="M1204.3,332.1h20.3v77.1h46.7l-2.3,16.6h-64.6V332.1z"/>
<path class="st0" d="M1340.8,332.1V388c0,18,9.2,23.3,19.4,23.3c11.6,0,18.9-6.3,18.9-23.3v-55.8h20.3V387c0,32-18.8,40.2-39.4,40.2
	c-21.2,0-39.4-8.5-39.4-39.8v-55.2H1340.8z"/>
<path class="st0" d="M1471.8,348.7h-28.5v-16.6h77.1v16.6h-28.4v77.1h-20.3V348.7z"/>
<path class="st0" d="M1614.1,332.1v93.7h-20.3v-93.7H1614.1z"/>
<path class="st0" d="M1771.5,380c0,26.1-15.7,48.5-46.1,48.5c-29.4,0-44.8-21.4-44.8-48.2c0-27.3,17-48.2,46.1-48.2
	C1754.1,332.1,1771.5,351.3,1771.5,380z M1701.5,379.9c0,18.3,8,32.1,24.6,32.1c18,0,24.4-15.1,24.4-31.8c0-17.7-7.3-31.7-24.7-31.7
	C1708.9,348.6,1701.5,361.7,1701.5,379.9z"/>
<path class="st0" d="M1807.9,425.9v-93.7h25.1c11.7,21,33.3,59,37.6,69.2h0.3c-1.1-9.8-1-26.1-1-41.4v-27.8h18.4v93.7h-23.8
	c-10.1-18.3-34-61.9-38.7-72.7h-0.3c0.7,8.2,0.9,27.5,0.9,44.2v28.5H1807.9z"/>
<path class="st0" d="M1952.4,399.7c2.1,9.4,8.9,13.5,19.7,13.5c10.8,0,15.4-4.3,15.4-11.1c0-7.6-4.5-10.9-20.5-14.7
	c-25.5-6-31.8-15.3-31.8-27.9c0-16.3,12.2-27.4,34.4-27.4c24.9,0,34.8,13.4,36.1,27.1h-20.4c-1-5.8-4.2-12-16.3-12
	c-8.2,0-13.2,3.4-13.2,10.1c0,6.5,4,9.2,19.1,12.7c27.3,6.4,33.2,16.6,33.2,29.8c0,17.1-12.9,28.9-37.7,28.9
	c-23.8,0-36.3-11.7-38.6-28.8H1952.4z"/>
</svg>
