<?xml version="1.0" encoding="utf-8"?>
<!-- Generator: Adobe Illustrator 23.0.0, SVG Export Plug-In . SVG Version: 6.00 Build 0)  -->
<svg version="1.1" id="Layer_1" xmlns="http://www.w3.org/2000/svg" xmlns:xlink="http://www.w3.org/1999/xlink" x="0px" y="0px"
	 viewBox="0 0 2369.6 447.3" style="enable-background:new 0 0 2369.6 447.3;" xml:space="preserve">
<style type="text/css">
	.st0{fill:#231815;}
</style>
<path class="st0" d="M111.1,16.7h38v36.6h-38l0.5,78h38v36h-37.9V238l38-3.4v36L27.8,281.9v-36.6l37-3.4v-75.1H27.3v-36h37.5
	l-0.5-78H26.8V16.2L111.1,16.7L111.1,16.7z M296.9,82.5l22.9,146.2h-45.9L256.9,121v160.4h-46.3V174.7l-13.2,53.6h-48.7l42.9-175.5
	h-33.2V16.2h161.4l-0.5,36.6h-79.4L233,82.1L296.9,82.5L296.9,82.5z"/>
<path class="st0" d="M593.6,152.7l39.5-37.5h-40l0.5-36.6h57V65.4h-57.5l16.1-49.2H655l-3.9,12.6h87.3v36.6h-41.5v13.2h43.4v36.6
	h-24.4l28.7,37.5h-46.3l-21.4-27.8l-29.3,27.8H593.6L593.6,152.7z M596.5,280.4v-32.2v-14.6v-24.8v-14.6V165v-3.4h284.2v32.7v14.6
	v23.4l0.5,1.4c0,6.3-1,12.6-2.9,18.5c-2,5.3-4.9,10.2-8.3,14.6c-2.9,3.9-7.3,7.3-11.7,9.8c-3.9,2.4-9.3,3.4-14.1,3.4L596.5,280.4
	L596.5,280.4z M643.8,209.3h188.7v-14.6H643.3L643.8,209.3z M644.2,248.8h178.4c3.4,0,5.9-1.4,7.3-3.9c2-2.9,2.9-6.3,2.9-9.8v-1
	H643.8L644.2,248.8z M753.5,16.2h132.1v3.4L885,52.3v59.5c0.5,5.9-1,11.2-2.9,16.1c-2,4.9-4.4,9.3-7.8,12.6
	c-3.4,3.4-7.3,6.3-11.7,8.8c-4.4,2-9.3,2.9-14.6,2.9h-95.5v-14.1v-22V52.3V19.6L753.5,16.2z M838.8,52.3h-39.5v63.3h29.3
	c2.9,0,5.9-1,7.8-3.4c2-2,2.9-4.9,2.9-8.3L838.8,52.3z"/>
<path class="st0" d="M1327.8,16.2v22h123.3v28.3l0.5,5.9v128.2c0,9.8-3.4,18.5-9.3,24.8c-5.3,6.3-13.6,10.2-22.9,10.2h-91.2v43.9
	h-45.4v-43.9h-123.3v-3.4v-30.8V72.3l-0.5-5.9l0.5-28.3h123.3V16.2C1283,16.2,1327.8,16.2,1327.8,16.2z M1283,201.5V72.3h-79v129.2
	H1283z M1327.8,72.3l-0.5,129.2h71.2c2,0,3.9-1,5.3-2.4c1.4-1.4,2.4-3.4,2-5.9V71.8L1327.8,72.3z"/>
<path class="st0" d="M1724.8,97.2h58v36.6v105.3c-0.5,2.9,1.4,5.9,3.4,8.3c2,2,4.4,3.4,7.3,3.4h15.1l-12.6,31.7h-18.5
	c-4.9,0-9.3-1-14.1-2.9c-4.4-2-8.3-4.9-11.7-8.8c-3.4-3.9-6.3-8.3-7.8-12.6c-2-5.3-2.4-10.2-2.9-15.6V134.3h-15.6L1724.8,97.2z
	 M1749.2,76.3l-23.9-59.5h50.7l23.9,59.5H1749.2z M1961.3,74.3l12.6,52.1l6.3-18.5h37l-28.3,80.9l23.4,93.6h-42.9l-5.3-21.4
	l-7.3,21.4h-37l29.7-83.8l-30.2-124.3h-60V107h62.9v135c0.5,5.9-1,11.2-2.9,16.1c-2,4.9-4.4,9.3-7.8,12.6c-3.5,3.4-7.3,6.3-11.7,8.8
	c-4.4,2-9.3,2.9-14.6,2.9h-29.3l11.7-36h1c2.9,0,5.3-1.4,7.8-3.4c2-2,2.9-4.9,2.9-8.3v-91.8h-21l-0.5,106.3l-13.2,32.7h-43.4
	l13.2-32.7v-176V37.2h94.1l-4.9-21h42.9l4.9,21h16.6l-4.9-19.5h38.5l16.1,56.6H1961.3L1961.3,74.3z"/>
<path d="M97.3,336.2H76.7v67.5c0,3.9-0.9,6.8-2.6,8.7c-1.7,1.9-4,2.8-6.7,2.8c-2.8,0-5.1-1-6.8-2.9c-1.8-1.9-2.6-4.8-2.6-8.6v-67.5
	H37.4c-3.2,0-5.6-0.7-7.2-2.1c-1.6-1.4-2.3-3.3-2.3-5.6c0-2.4,0.8-4.3,2.4-5.7c1.6-1.4,4-2.1,7.1-2.1h59.8c3.3,0,5.7,0.7,7.3,2.2
	s2.4,3.3,2.4,5.6c0,2.3-0.8,4.2-2.4,5.6C102.9,335.5,100.5,336.2,97.3,336.2z"/>
<path d="M266.6,373.8H260v29.8c0,3.9-0.9,6.8-2.6,8.7s-4,2.8-6.8,2.8c-3,0-5.3-1-7-2.9c-1.6-1.9-2.5-4.8-2.5-8.6v-71.5
	c0-4.1,0.9-7,2.7-8.8s4.8-2.7,8.8-2.7h30.6c4.2,0,7.8,0.2,10.8,0.5c3,0.4,5.7,1.1,8.1,2.2c2.9,1.2,5.5,3,7.7,5.3
	c2.2,2.3,3.9,4.9,5.1,8c1.2,3,1.7,6.2,1.7,9.6c0,6.9-2,12.5-5.9,16.6c-3.9,4.1-9.8,7.1-17.8,8.8c3.3,1.8,6.5,4.4,9.6,7.9
	c3,3.5,5.8,7.2,8.1,11.1c2.4,3.9,4.2,7.4,5.6,10.6s2,5.3,2,6.5c0,1.2-0.4,2.4-1.2,3.6c-0.8,1.2-1.8,2.2-3.2,2.9
	c-1.4,0.7-2.9,1-4.7,1c-2.1,0-3.9-0.5-5.3-1.5c-1.4-1-2.7-2.2-3.7-3.8c-1-1.5-2.4-3.8-4.2-6.7l-7.5-12.5c-2.7-4.6-5.1-8.1-7.3-10.5
	c-2.1-2.4-4.3-4.1-6.5-4.9C272.7,374.3,269.9,373.8,266.6,373.8z M277.3,334.8H260v25.5h16.9c4.5,0,8.3-0.4,11.4-1.2
	c3.1-0.8,5.4-2.1,7.1-4c1.6-1.9,2.4-4.5,2.4-7.8c0-2.6-0.7-4.8-2-6.8c-1.3-2-3.1-3.4-5.5-4.4C288.1,335.3,283.8,334.8,277.3,334.8z"
	/>
<path d="M453.1,376.8v-44.7c0-3.8,0.9-6.7,2.6-8.6s4-2.9,6.7-2.9c2.9,0,5.2,1,6.9,2.9s2.6,4.8,2.6,8.6v45.7c0,5.2,0.6,9.5,1.7,13
	c1.2,3.5,3.2,6.2,6.2,8.1c3,1.9,7.1,2.9,12.4,2.9c7.4,0,12.5-2,15.6-5.9c3-3.9,4.6-9.8,4.6-17.8v-46.1c0-3.8,0.8-6.7,2.5-8.6
	c1.7-1.9,4-2.8,6.8-2.8c2.8,0,5.1,0.9,6.9,2.8s2.6,4.7,2.6,8.6v44.7c0,7.3-0.7,13.3-2.1,18.2c-1.4,4.9-4.1,9.1-8,12.8
	c-3.4,3.1-7.3,5.4-11.8,6.8c-4.5,1.4-9.7,2.2-15.7,2.2c-7.1,0-13.3-0.8-18.4-2.3c-5.2-1.5-9.4-3.9-12.6-7.2
	c-3.3-3.2-5.6-7.4-7.2-12.4C453.9,389.8,453.1,383.8,453.1,376.8z"/>
<path d="M741.5,387.3c0,5.6-1.4,10.7-4.3,15.1c-2.9,4.5-7.1,8-12.7,10.5c-5.6,2.5-12.2,3.8-19.8,3.8c-9.2,0-16.7-1.7-22.7-5.2
	c-4.2-2.5-7.7-5.8-10.3-10c-2.6-4.2-4-8.2-4-12.1c0-2.3,0.8-4.2,2.4-5.9c1.6-1.6,3.6-2.4,6.1-2.4c2,0,3.7,0.6,5,1.9
	c1.4,1.3,2.5,3.1,3.5,5.6c1.2,3,2.5,5.4,3.8,7.4c1.4,2,3.3,3.6,5.8,4.9c2.5,1.3,5.8,1.9,9.8,1.9c5.6,0,10.1-1.3,13.6-3.9
	c3.5-2.6,5.2-5.8,5.2-9.7c0-3.1-0.9-5.6-2.8-7.5c-1.9-1.9-4.3-3.4-7.3-4.4c-3-1-7-2.1-11.9-3.2c-6.7-1.6-12.3-3.4-16.8-5.5
	c-4.5-2.1-8.1-4.9-10.7-8.6c-2.6-3.6-4-8.1-4-13.5c0-5.1,1.4-9.7,4.2-13.6c2.8-4,6.8-7,12.1-9.2c5.3-2.1,11.5-3.2,18.6-3.2
	c5.7,0,10.6,0.7,14.8,2.1c4.2,1.4,7.6,3.3,10.4,5.6c2.7,2.3,4.8,4.8,6,7.4c1.3,2.6,1.9,5.1,1.9,7.5c0,2.2-0.8,4.3-2.4,6.1
	c-1.6,1.8-3.6,2.7-5.9,2.7c-2.2,0-3.8-0.5-4.9-1.6c-1.1-1.1-2.3-2.8-3.6-5.3c-1.7-3.5-3.7-6.2-6.1-8.2c-2.4-2-6.2-2.9-11.4-2.9
	c-4.9,0-8.8,1.1-11.8,3.2c-3,2.1-4.5,4.7-4.5,7.7c0,1.9,0.5,3.5,1.5,4.8c1,1.4,2.4,2.5,4.2,3.5c1.8,1,3.6,1.7,5.4,2.3
	c1.8,0.5,4.8,1.4,9,2.4c5.2,1.2,10,2.6,14.2,4.1c4.2,1.5,7.9,3.3,10.8,5.4c3,2.1,5.3,4.8,7,8C740.7,378.6,741.5,382.6,741.5,387.3z"
	/>
<path d="M946.8,336.2h-20.5v67.5c0,3.9-0.9,6.8-2.6,8.7c-1.7,1.9-4,2.8-6.7,2.8c-2.8,0-5.1-1-6.8-2.9c-1.8-1.9-2.6-4.8-2.6-8.6
	v-67.5H887c-3.2,0-5.6-0.7-7.2-2.1c-1.6-1.4-2.3-3.3-2.3-5.6c0-2.4,0.8-4.3,2.4-5.7c1.6-1.4,4-2.1,7.1-2.1h59.8
	c3.3,0,5.7,0.7,7.3,2.2s2.4,3.3,2.4,5.6c0,2.3-0.8,4.2-2.4,5.6C952.4,335.5,950,336.2,946.8,336.2z"/>
<path d="M1129,320.7c9.6,0,17.9,2,24.8,5.9c6.9,3.9,12.1,9.5,15.7,16.7c3.5,7.2,5.3,15.7,5.3,25.4c0,7.2-1,13.7-2.9,19.6
	c-1.9,5.9-4.9,11-8.7,15.3c-3.9,4.3-8.7,7.6-14.3,9.9s-12.1,3.4-19.5,3.4c-7.3,0-13.8-1.2-19.5-3.5c-5.7-2.3-10.5-5.7-14.4-9.9
	c-3.8-4.3-6.7-9.4-8.7-15.4c-2-6-2.9-12.5-2.9-19.5c0-7.1,1-13.7,3.1-19.6c2-6,5-11,8.9-15.2c3.9-4.2,8.6-7.4,14.2-9.6
	C1115.6,321.8,1122,320.7,1129,320.7z M1155.8,368.5c0-6.8-1.1-12.7-3.3-17.7c-2.2-5-5.3-8.8-9.4-11.3c-4.1-2.6-8.8-3.8-14-3.8
	c-3.8,0-7.2,0.7-10.4,2.1c-3.2,1.4-5.9,3.5-8.2,6.2c-2.3,2.7-4.1,6.2-5.4,10.4c-1.3,4.2-2,8.9-2,14.2c0,5.3,0.7,10.1,2,14.3
	c1.3,4.3,3.2,7.8,5.6,10.6c2.4,2.8,5.2,4.9,8.4,6.3c3.1,1.4,6.6,2.1,10.4,2.1c4.8,0,9.2-1.2,13.3-3.6c4-2.4,7.2-6.1,9.6-11.2
	C1154.6,382,1155.8,375.8,1155.8,368.5z"/>
<path d="M1383.2,385.8c0,3-0.7,6.2-2.2,9.6c-1.5,3.4-3.8,6.8-6.9,10.1c-3.1,3.3-7.1,6-12,8.1c-4.9,2.1-10.5,3.1-17,3.1
	c-4.9,0-9.4-0.5-13.4-1.4s-7.7-2.4-10.9-4.3c-3.3-2-6.3-4.6-9-7.8c-2.5-2.9-4.5-6.2-6.3-9.8c-1.7-3.6-3-7.5-3.9-11.6
	c-0.9-4.1-1.3-8.4-1.3-13.1c0-7.5,1.1-14.2,3.3-20.1c2.2-5.9,5.3-11,9.3-15.2c4.1-4.2,8.8-7.4,14.3-9.6c5.5-2.2,11.3-3.3,17.4-3.3
	c7.5,0,14.2,1.5,20.1,4.5c5.9,3,10.4,6.7,13.5,11.1c3.1,4.4,4.7,8.6,4.7,12.5c0,2.2-0.8,4.1-2.3,5.7c-1.5,1.6-3.4,2.5-5.5,2.5
	c-2.4,0-4.2-0.6-5.4-1.7s-2.5-3.1-4-5.9c-2.5-4.6-5.3-8-8.7-10.3c-3.3-2.3-7.4-3.4-12.3-3.4c-7.7,0-13.9,2.9-18.5,8.8
	c-4.6,5.9-6.9,14.2-6.9,25c0,7.2,1,13.2,3,18c2,4.8,4.9,8.4,8.6,10.7c3.7,2.4,8.1,3.5,13.1,3.5c5.4,0,10-1.3,13.7-4
	c3.7-2.7,6.6-6.6,8.5-11.8c0.8-2.5,1.8-4.4,3-6c1.2-1.5,3.1-2.3,5.7-2.3c2.2,0,4.2,0.8,5.8,2.3
	C1382.4,381.6,1383.2,383.5,1383.2,385.8z"/>
<path d="M1579.6,335.2h-42.4V358h39c2.9,0,5,0.6,6.4,1.9c1.4,1.3,2.1,3,2.1,5.1s-0.7,3.8-2.1,5.2c-1.4,1.3-3.5,2-6.5,2h-39v26.4
	h43.9c3,0,5.2,0.7,6.7,2.1c1.5,1.4,2.3,3.2,2.3,5.5c0,2.2-0.8,4-2.3,5.4c-1.5,1.4-3.7,2.1-6.7,2.1h-51.1c-4.1,0-7-0.9-8.8-2.7
	c-1.8-1.8-2.7-4.8-2.7-8.8v-69.8c0-2.7,0.4-4.9,1.2-6.6c0.8-1.7,2.1-3,3.8-3.7c1.7-0.8,3.9-1.2,6.6-1.2h49.7c3,0,5.2,0.7,6.7,2
	c1.5,1.3,2.2,3.1,2.2,5.2c0,2.2-0.7,4-2.2,5.3C1584.8,334.5,1582.6,335.2,1579.6,335.2z"/>
<path d="M1789.5,404.6l-4.4-11.7h-37.8l-4.4,11.9c-1.7,4.6-3.2,7.8-4.4,9.4s-3.2,2.4-6,2.4c-2.4,0-4.5-0.9-6.3-2.6
	c-1.8-1.7-2.7-3.7-2.7-5.9c0-1.3,0.2-2.6,0.6-3.9c0.4-1.4,1.1-3.2,2.1-5.6l23.8-60.3c0.7-1.7,1.5-3.8,2.4-6.2c1-2.4,2-4.4,3-6.1
	s2.5-2.9,4.2-3.9c1.8-1,3.9-1.5,6.5-1.5c2.6,0,4.8,0.5,6.6,1.5c1.8,1,3.2,2.3,4.2,3.8c1.1,1.6,2,3.2,2.7,5c0.7,1.8,1.7,4.2,2.8,7.2
	l24.3,59.9c1.9,4.6,2.9,7.9,2.9,9.9c0,2.2-0.9,4.1-2.7,5.9c-1.8,1.8-4,2.7-6.5,2.7c-1.5,0-2.7-0.3-3.8-0.8s-1.9-1.2-2.7-2.2
	c-0.7-0.9-1.5-2.3-2.3-4.2C1790.8,407.7,1790.1,406.1,1789.5,404.6z M1752.3,378.8h27.8l-14-38.3L1752.3,378.8z"/>
<path d="M1964.3,332l36.2,54.8v-55.3c0-3.6,0.8-6.3,2.3-8.1c1.5-1.8,3.6-2.7,6.2-2.7c2.7,0,4.8,0.9,6.4,2.7c1.6,1.8,2.3,4.5,2.3,8.1
	v73.1c0,8.2-3.4,12.2-10.1,12.2c-1.7,0-3.2-0.2-4.6-0.7c-1.4-0.5-2.6-1.3-3.8-2.3c-1.2-1.1-2.3-2.3-3.3-3.7c-1-1.4-2-2.9-3-4.3
	l-35.3-54.1V406c0,3.5-0.8,6.2-2.5,8c-1.6,1.8-3.8,2.7-6.3,2.7c-2.7,0-4.8-0.9-6.4-2.8c-1.6-1.8-2.4-4.5-2.4-8v-71.7
	c0-3,0.3-5.4,1-7.2c0.8-1.9,2.1-3.5,4-4.7c1.9-1.2,3.9-1.8,6-1.8c1.7,0,3.1,0.3,4.3,0.8c1.2,0.5,2.3,1.3,3.2,2.2
	c0.9,0.9,1.8,2.1,2.8,3.6C1962.3,328.8,1963.3,330.3,1964.3,332z"/>
</svg>
