<?xml version="1.0" encoding="utf-8"?>
<!-- Generator: Adobe Illustrator 23.0.0, SVG Export Plug-In . SVG Version: 6.00 Build 0)  -->
<svg version="1.1" id="Layer_1" xmlns="http://www.w3.org/2000/svg" xmlns:xlink="http://www.w3.org/1999/xlink" x="0px" y="0px"
	 viewBox="0 0 2369.6 447.3" style="enable-background:new 0 0 2369.6 447.3;" xml:space="preserve">
<style type="text/css">
	.st0{fill:#C41230;}
</style>
<g>
	<path class="st0" d="M1536.1,26.5h-116.7v8.8c0,17.6,6.6,39.6,35.2,39.6h35.2h44c46.2,0,70.5,15.4,61.6,66.1l-4.4,39.6
		c-6.6,52.8-44,59.4-77.1,59.4h-44l13.2-101.3c2.2-15.4-4.4-37.4-33-37.4h-37.4l-13.2,83.7l-8.8,72.7c-2.2,19.8,11,30.8,41.8,30.8
		h90.3c90.3,0,116.7-33,127.7-52.8c6.6-11,11-26.4,13.2-44c0-2.2,6.6-55,6.6-55c4.4-30.8-2.2-55-17.6-72.7
		C1630.8,39.7,1593.4,26.5,1536.1,26.5z"/>
	<path class="st0" d="M477.1,22.1h-13.2c-92.5,0-138.7,39.6-149.7,112.3l-6.6,46.2c-4.4,33,2.2,57.2,17.6,74.9
		c19.8,22,52.8,37.4,105.7,37.4h13.2c90.3,0,136.5-37.4,149.7-105.7v-4.4l6.6-46.2c4.4-33-2.2-59.4-17.6-77.1
		C563,37.5,527.7,22.1,477.1,22.1z M525.5,136.6l-6.6,44c-2.2,19.8-6.6,33-15.4,44c-11,15.4-28.6,24.2-52.8,24.2h-13.2
		c-24.2,0-41.8-8.8-48.4-22c-4.4-11-6.6-24.2-4.4-44l6.6-44c2.2-22,11-39.6,22-52.8c11-11,28.6-17.6,48.4-17.6h13.2
		c13.2,0,33,2.2,41.8,15.4S527.7,112.4,525.5,136.6z"/>
	<path class="st0" d="M2005.1,57.4c-19.8-22-52.8-37.4-105.7-37.4h-13.2c-92.5,0-138.7,39.6-149.7,112.3l-6.6,46.2
		c-4.4,33,2.2,57.2,17.6,74.9c19.8,22,52.8,37.4,105.7,37.4h13.2c90.3,0,136.5-37.4,149.7-105.7v-4.4l6.6-46.2
		C2027.1,101.4,2022.7,77.2,2005.1,57.4z M1947.8,136.6l-6.6,44c-2.2,19.8-6.6,33-15.4,44c-11,15.4-28.6,24.2-52.8,24.2h-13.2
		c-24.2,0-41.8-8.8-48.4-22c-4.4-11-6.6-24.2-4.4-44l6.6-44c2.2-22,11-39.6,22-52.8c11-11,28.6-17.6,48.4-17.6h13.2
		c13.2,0,33,2.2,41.8,15.4C1950,97,1952.3,112.4,1947.8,136.6z"/>
	<path class="st0" d="M1214.7,22.1h-13.2c-92.5,0-138.7,39.6-149.7,112.3l-6.6,46.2c-4.4,33,2.2,57.2,17.6,74.9
		c19.8,22,52.8,37.4,105.7,37.4h13.2c90.3,0,136.5-37.4,149.7-105.7v-4.4l6.6-46.2c4.4-33-2.2-59.4-17.6-77.1
		C1300.5,37.5,1267.5,22.1,1214.7,22.1z M1263.1,136.6l-6.6,44c-2.2,19.8-6.6,33-15.4,44c-11,15.4-28.6,24.2-52.8,24.2H1175
		c-24.2,0-41.8-8.8-48.4-22c-4.4-11-6.6-24.2-4.4-44l6.6-44c2.2-22,11-39.6,22-52.8c11-11,28.6-17.6,48.4-17.6h13.2
		c13.2,0,33,2.2,41.8,15.4S1267.5,112.4,1263.1,136.6z"/>
	<path class="st0" d="M926.2,41.9L825,156.4L754.5,44.1c-6.6-11-19.8-15.4-41.8-15.4h-33l-30.8,259.8h39.6c13.2,0,22-4.4,28.6-11
		c8.8-6.6,13.2-17.6,15.4-28.6l13.2-114.5l52.8,99.1c2.2,4.4,8.8,11,17.6,11c8.8,0,15.4-8.8,17.6-11l79.3-99.1l-19.8,151.9h37.4
		c13.2,0,22-4.4,28.6-11c8.8-6.6,13.2-17.6,15.4-28.6l26.4-220.2h-33C948.3,26.5,935.1,30.9,926.2,41.9z"/>
	<path class="st0" d="M171.1,26.5c-13.2,0-24.2,0-35.2,2.2C69.8,37.5,36.8,75,27.9,134.4l-6.6,46.2c-4.4,30.8,2.2,55,17.6,72.7
		c17.6,19.8,48.4,35.2,92.5,35.2h79.3c46.2,0,50.6-48.4,50.6-48.4H157.8c-13.2,0-28.6-2.2-37.4-4.4c-13.2-4.4-19.8-13.2-24.2-28.6
		c0-6.6,0-19.8,0-28.6l4.4-39.6c2.2-11,4.4-22,6.6-26.4c4.4-8.8,11-19.8,19.8-26.4c6.6-4.4,19.8-13.2,55-13.2h57.2
		c39.6,0,48.4-48.4,48.4-48.4L171.1,26.5z"/>
</g>
<path class="st0" d="M102,400.6c0,2.9-0.7,5.9-2.1,9.3c-1.4,3.3-3.6,6.6-6.6,9.8c-3,3.2-6.9,5.8-11.6,7.8c-4.7,2-10.2,3-16.4,3
	c-4.7,0-9-0.4-12.9-1.3c-3.9-0.9-7.4-2.3-10.6-4.2c-3.2-1.9-6.1-4.4-8.7-7.5c-2.4-2.8-4.4-6-6.1-9.5c-1.7-3.5-2.9-7.2-3.8-11.2
	c-0.8-4-1.3-8.2-1.3-12.6c0-7.2,1.1-13.7,3.2-19.4c2.1-5.7,5.1-10.6,9-14.7c3.9-4.1,8.5-7.2,13.8-9.3c5.3-2.1,10.9-3.2,16.8-3.2
	c7.3,0,13.7,1.4,19.4,4.3c5.7,2.9,10,6.5,13,10.7c3,4.3,4.5,8.3,4.5,12.1c0,2.1-0.7,3.9-2.2,5.5c-1.5,1.6-3.2,2.4-5.3,2.4
	c-2.3,0-4.1-0.6-5.2-1.7c-1.2-1.1-2.5-3-3.9-5.7c-2.4-4.4-5.2-7.8-8.4-10c-3.2-2.2-7.2-3.3-11.8-3.3c-7.5,0-13.4,2.8-17.8,8.5
	c-4.4,5.7-6.6,13.7-6.6,24.2c0,7,1,12.8,2.9,17.4c2,4.6,4.7,8.1,8.3,10.4c3.6,2.3,7.8,3.4,12.6,3.4c5.2,0,9.6-1.3,13.3-3.9
	c3.6-2.6,6.3-6.4,8.2-11.4c0.8-2.4,1.7-4.3,2.9-5.8c1.1-1.5,3-2.2,5.5-2.2c2.2,0,4,0.8,5.6,2.3C101.2,396.5,102,398.4,102,400.6z"/>
<path class="st0" d="M212,419.4v-28.5l-21.9-34c-1.9-3.1-3.3-5.4-4.1-7.2c-0.8-1.7-1.2-3.2-1.2-4.5c0-2.1,0.8-3.9,2.4-5.4
	c1.6-1.5,3.6-2.3,6-2.3c2.5,0,4.4,0.7,5.7,2.1c1.3,1.4,3.2,4.2,5.8,8.4l16.8,27.2l17-27.2c1-1.7,1.9-3.1,2.6-4.2
	c0.7-1.1,1.5-2.2,2.3-3.2c0.8-1,1.8-1.8,2.8-2.3c1-0.5,2.3-0.8,3.7-0.8c2.3,0,4.2,0.7,5.7,2.2c1.5,1.5,2.3,3.2,2.3,5.2
	c0,1.6-0.4,3.2-1.2,4.8c-0.8,1.6-2.1,3.8-4,6.6l-22.5,34.5v28.5c0,3.7-0.9,6.5-2.6,8.3c-1.7,1.8-3.9,2.8-6.5,2.8
	c-2.7,0-4.9-0.9-6.6-2.7C212.9,425.9,212,423.2,212,419.4z"/>
<path class="st0" d="M381.8,429h-27.4c-4,0-6.8-0.9-8.5-2.7c-1.7-1.8-2.5-4.6-2.5-8.5v-67.5c0-4,0.9-6.8,2.6-8.5
	c1.7-1.7,4.5-2.6,8.4-2.6h29.1c4.3,0,8,0.3,11.1,0.8c3.1,0.5,6,1.6,8.4,3.1c2.1,1.3,4,2.9,5.6,4.8c1.6,1.9,2.9,4.1,3.7,6.4
	s1.3,4.8,1.3,7.4c0,9-4.5,15.5-13.5,19.7c11.8,3.8,17.7,11.1,17.7,21.9c0,5-1.3,9.5-3.9,13.6s-6,7-10.4,8.9
	c-2.7,1.1-5.9,1.9-9.4,2.4C390.7,428.7,386.5,429,381.8,429z M361.5,352.9v23.2h16.6c4.5,0,8-0.4,10.5-1.3c2.5-0.9,4.4-2.5,5.7-4.9
	c1-1.7,1.5-3.6,1.5-5.8c0-4.5-1.6-7.5-4.8-9c-3.2-1.5-8.1-2.2-14.8-2.2H361.5z M380.4,389.1h-18.9v26.2h19.5
	c12.3,0,18.4-4.4,18.4-13.3c0-4.5-1.6-7.8-4.8-9.9C391.5,390.1,386.8,389.1,380.4,389.1z"/>
<path class="st0" d="M564.5,353.2h-41v22h37.7c2.8,0,4.8,0.6,6.2,1.9c1.4,1.2,2.1,2.9,2.1,4.9c0,2-0.7,3.7-2,5
	c-1.3,1.3-3.4,1.9-6.2,1.9h-37.7v25.5h42.4c2.9,0,5,0.7,6.5,2c1.4,1.3,2.2,3.1,2.2,5.3c0,2.1-0.7,3.8-2.2,5.2c-1.4,1.3-3.6,2-6.5,2
	h-49.4c-4,0-6.8-0.9-8.5-2.6c-1.7-1.8-2.6-4.6-2.6-8.5v-67.5c0-2.6,0.4-4.7,1.2-6.4c0.8-1.7,2-2.9,3.6-3.6c1.7-0.8,3.8-1.1,6.3-1.1
	h48c2.9,0,5,0.6,6.5,1.9c1.4,1.3,2.1,3,2.1,5c0,2.1-0.7,3.8-2.1,5.1C569.5,352.6,567.4,353.2,564.5,353.2z"/>
<path class="st0" d="M686.4,390.6h-6.4v28.8c0,3.8-0.8,6.6-2.5,8.4c-1.7,1.8-3.9,2.7-6.6,2.7c-2.9,0-5.1-0.9-6.7-2.8
	c-1.6-1.9-2.4-4.6-2.4-8.3v-69c0-3.9,0.9-6.8,2.6-8.5c1.8-1.8,4.6-2.6,8.5-2.6h29.6c4.1,0,7.6,0.2,10.5,0.5c2.9,0.3,5.5,1.1,7.8,2.1
	c2.8,1.2,5.3,2.9,7.5,5.1c2.2,2.2,3.8,4.8,4.9,7.7c1.1,2.9,1.7,6,1.7,9.3c0,6.7-1.9,12-5.7,16c-3.8,4-9.5,6.8-17.2,8.5
	c3.2,1.7,6.3,4.2,9.2,7.6c2.9,3.3,5.6,6.9,7.9,10.7c2.3,3.8,4.1,7.2,5.4,10.2s1.9,5.1,1.9,6.3c0,1.2-0.4,2.4-1.1,3.5
	c-0.8,1.2-1.8,2.1-3.1,2.8c-1.3,0.7-2.8,1-4.5,1c-2,0-3.8-0.5-5.1-1.4c-1.4-1-2.6-2.2-3.6-3.6c-1-1.5-2.4-3.6-4.1-6.5l-7.3-12.1
	c-2.6-4.4-4.9-7.8-7-10.2c-2.1-2.3-4.2-3.9-6.3-4.8C692.3,391,689.7,390.6,686.4,390.6z M696.8,352.9h-16.8v24.7h16.3
	c4.4,0,8-0.4,11-1.1c3-0.8,5.3-2,6.8-3.9c1.6-1.8,2.4-4.3,2.4-7.5c0-2.5-0.6-4.7-1.9-6.6c-1.3-1.9-3-3.3-5.3-4.3
	C707.3,353.3,703.1,352.9,696.8,352.9z"/>
<path class="st0" d="M894.2,402c0,5.4-1.4,10.3-4.2,14.6c-2.8,4.3-6.9,7.7-12.3,10.2s-11.8,3.7-19.2,3.7c-8.9,0-16.2-1.7-21.9-5
	c-4.1-2.4-7.4-5.6-9.9-9.6c-2.6-4-3.8-7.9-3.8-11.7c0-2.2,0.8-4.1,2.3-5.7c1.5-1.6,3.5-2.4,5.8-2.4c1.9,0,3.5,0.6,4.9,1.8
	c1.3,1.2,2.5,3,3.4,5.4c1.1,2.9,2.4,5.2,3.7,7.2c1.3,1.9,3.2,3.5,5.6,4.7c2.4,1.2,5.6,1.9,9.5,1.9c5.4,0,9.8-1.3,13.1-3.8
	s5-5.6,5-9.4c0-3-0.9-5.4-2.7-7.3c-1.8-1.9-4.2-3.3-7-4.3c-2.9-1-6.7-2-11.5-3.1c-6.4-1.5-11.8-3.3-16.2-5.3
	c-4.3-2-7.8-4.8-10.3-8.3c-2.6-3.5-3.8-7.8-3.8-13c0-4.9,1.3-9.3,4-13.2s6.6-6.8,11.7-8.8c5.1-2.1,11.1-3.1,18-3.1
	c5.5,0,10.3,0.7,14.3,2.1c4,1.4,7.4,3.2,10,5.4c2.7,2.3,4.6,4.6,5.8,7.1c1.2,2.5,1.8,4.9,1.8,7.3c0,2.2-0.8,4.1-2.3,5.8
	c-1.5,1.7-3.4,2.6-5.7,2.6c-2.1,0-3.7-0.5-4.7-1.6c-1.1-1-2.3-2.7-3.5-5.1c-1.6-3.4-3.6-6-5.9-7.9c-2.3-1.9-6-2.8-11-2.8
	c-4.7,0-8.5,1-11.4,3.1c-2.9,2.1-4.3,4.5-4.3,7.4c0,1.8,0.5,3.3,1.5,4.7c1,1.3,2.3,2.4,4,3.4s3.4,1.7,5.2,2.2
	c1.8,0.5,4.7,1.3,8.7,2.3c5.1,1.2,9.6,2.5,13.7,3.9c4.1,1.4,7.6,3.2,10.5,5.2c2.9,2,5.1,4.6,6.7,7.7
	C893.4,393.7,894.2,397.5,894.2,402z"/>
<path class="st0" d="M1042.4,353.2h-41v22h37.7c2.8,0,4.8,0.6,6.2,1.9c1.4,1.2,2.1,2.9,2.1,4.9c0,2-0.7,3.7-2,5
	c-1.3,1.3-3.4,1.9-6.2,1.9h-37.7v25.5h42.4c2.9,0,5,0.7,6.5,2c1.4,1.3,2.2,3.1,2.2,5.3c0,2.1-0.7,3.8-2.2,5.2c-1.4,1.3-3.6,2-6.5,2
	h-49.4c-4,0-6.8-0.9-8.5-2.6c-1.7-1.8-2.6-4.6-2.6-8.5v-67.5c0-2.6,0.4-4.7,1.2-6.4c0.8-1.7,2-2.9,3.6-3.6c1.7-0.8,3.8-1.1,6.3-1.1
	h48c2.9,0,5,0.6,6.5,1.9c1.4,1.3,2.1,3,2.1,5c0,2.1-0.7,3.8-2.1,5.1C1047.4,352.6,1045.3,353.2,1042.4,353.2z"/>
<path class="st0" d="M1217.1,400.6c0,2.9-0.7,5.9-2.1,9.3c-1.4,3.3-3.6,6.6-6.6,9.8c-3,3.2-6.9,5.8-11.6,7.8c-4.7,2-10.2,3-16.4,3
	c-4.7,0-9-0.4-12.9-1.3c-3.9-0.9-7.4-2.3-10.6-4.2c-3.2-1.9-6.1-4.4-8.7-7.5c-2.4-2.8-4.4-6-6.1-9.5c-1.7-3.5-2.9-7.2-3.8-11.2
	c-0.8-4-1.3-8.2-1.3-12.6c0-7.2,1.1-13.7,3.2-19.4c2.1-5.7,5.1-10.6,9-14.7c3.9-4.1,8.5-7.2,13.8-9.3c5.3-2.1,10.9-3.2,16.8-3.2
	c7.3,0,13.7,1.4,19.4,4.3c5.7,2.9,10,6.5,13,10.7c3,4.3,4.5,8.3,4.5,12.1c0,2.1-0.7,3.9-2.2,5.5c-1.5,1.6-3.2,2.4-5.3,2.4
	c-2.3,0-4.1-0.6-5.2-1.7c-1.2-1.1-2.5-3-3.9-5.7c-2.4-4.4-5.2-7.8-8.4-10c-3.2-2.2-7.2-3.3-11.8-3.3c-7.5,0-13.4,2.8-17.8,8.5
	c-4.4,5.7-6.6,13.7-6.6,24.2c0,7,1,12.8,2.9,17.4c2,4.6,4.7,8.1,8.3,10.4c3.6,2.3,7.8,3.4,12.6,3.4c5.2,0,9.6-1.3,13.3-3.9
	c3.6-2.6,6.3-6.4,8.2-11.4c0.8-2.4,1.7-4.3,2.9-5.8c1.1-1.5,3-2.2,5.5-2.2c2.2,0,4,0.8,5.6,2.3
	C1216.4,396.5,1217.1,398.4,1217.1,400.6z"/>
<path class="st0" d="M1298.7,391.9v-43.2c0-3.7,0.8-6.4,2.5-8.3c1.7-1.8,3.8-2.8,6.5-2.8c2.8,0,5.1,0.9,6.7,2.8
	c1.7,1.8,2.5,4.6,2.5,8.3v44.1c0,5,0.6,9.2,1.7,12.6c1.1,3.4,3.1,6,6,7.8c2.9,1.9,6.9,2.8,12,2.8c7.1,0,12.1-1.9,15.1-5.7
	c2.9-3.8,4.4-9.5,4.4-17.2v-44.5c0-3.7,0.8-6.5,2.4-8.3c1.6-1.8,3.8-2.7,6.5-2.7c2.7,0,4.9,0.9,6.6,2.7c1.7,1.8,2.5,4.6,2.5,8.3
	v43.2c0,7-0.7,12.9-2.1,17.6c-1.4,4.7-3.9,8.8-7.7,12.4c-3.3,3-7.1,5.2-11.4,6.6c-4.3,1.4-9.4,2.1-15.2,2.1
	c-6.9,0-12.8-0.7-17.8-2.2c-5-1.5-9-3.8-12.2-6.9c-3.1-3.1-5.4-7.1-6.9-12C1299.4,404.5,1298.7,398.6,1298.7,391.9z"/>
<path class="st0" d="M1483,390.6h-6.4v28.8c0,3.8-0.8,6.6-2.5,8.4c-1.7,1.8-3.9,2.7-6.6,2.7c-2.9,0-5.1-0.9-6.7-2.8
	c-1.6-1.9-2.4-4.6-2.4-8.3v-69c0-3.9,0.9-6.8,2.6-8.5c1.8-1.8,4.6-2.6,8.5-2.6h29.6c4.1,0,7.6,0.2,10.5,0.5c2.9,0.3,5.5,1.1,7.8,2.1
	c2.8,1.2,5.3,2.9,7.5,5.1c2.2,2.2,3.8,4.8,4.9,7.7c1.1,2.9,1.7,6,1.7,9.3c0,6.7-1.9,12-5.7,16c-3.8,4-9.5,6.8-17.2,8.5
	c3.2,1.7,6.3,4.2,9.2,7.6c2.9,3.3,5.6,6.9,7.9,10.7c2.3,3.8,4.1,7.2,5.4,10.2s1.9,5.1,1.9,6.3c0,1.2-0.4,2.4-1.1,3.5
	c-0.8,1.2-1.8,2.1-3.1,2.8c-1.3,0.7-2.8,1-4.5,1c-2,0-3.8-0.5-5.1-1.4c-1.4-1-2.6-2.2-3.6-3.6c-1-1.5-2.4-3.6-4.1-6.5l-7.3-12.1
	c-2.6-4.4-4.9-7.8-7-10.2c-2.1-2.3-4.2-3.9-6.3-4.8C1488.9,391,1486.2,390.6,1483,390.6z M1493.4,352.9h-16.8v24.7h16.3
	c4.4,0,8-0.4,11-1.1c3-0.8,5.3-2,6.8-3.9c1.6-1.8,2.4-4.3,2.4-7.5c0-2.5-0.6-4.7-1.9-6.6c-1.3-1.9-3-3.3-5.3-4.3
	C1503.8,353.3,1499.6,352.9,1493.4,352.9z"/>
<path class="st0" d="M1646,419.4v-70.7c0-3.7,0.8-6.4,2.5-8.3c1.7-1.8,3.8-2.8,6.5-2.8c2.7,0,4.9,0.9,6.6,2.7
	c1.7,1.8,2.5,4.6,2.5,8.3v70.7c0,3.7-0.8,6.5-2.5,8.3c-1.7,1.8-3.9,2.8-6.6,2.8c-2.6,0-4.8-0.9-6.5-2.8
	C1646.8,425.8,1646,423.1,1646,419.4z"/>
<path class="st0" d="M1843.2,354.2h-19.8v65.2c0,3.8-0.8,6.5-2.5,8.4c-1.7,1.8-3.8,2.7-6.5,2.7c-2.7,0-4.9-0.9-6.6-2.8
	c-1.7-1.8-2.5-4.6-2.5-8.3v-65.2h-19.8c-3.1,0-5.4-0.7-6.9-2.1c-1.5-1.4-2.3-3.2-2.3-5.4c0-2.3,0.8-4.2,2.4-5.5c1.6-1.3,3.8-2,6.8-2
	h57.8c3.1,0,5.5,0.7,7,2.1c1.5,1.4,2.3,3.2,2.3,5.4c0,2.2-0.8,4.1-2.3,5.4C1848.6,353.5,1846.3,354.2,1843.2,354.2z"/>
<path class="st0" d="M1964.4,412.9v-28.5l-21.9-34c-1.9-3.1-3.3-5.4-4.1-7.2c-0.8-1.7-1.2-3.2-1.2-4.5c0-2.1,0.8-3.9,2.4-5.4
	c1.6-1.5,3.6-2.3,6-2.3c2.5,0,4.4,0.7,5.7,2.1c1.3,1.4,3.2,4.2,5.8,8.4l16.8,27.2l17-27.2c1-1.7,1.9-3.1,2.6-4.2
	c0.7-1.1,1.5-2.2,2.3-3.2c0.8-1,1.8-1.8,2.8-2.3c1-0.5,2.3-0.8,3.7-0.8c2.3,0,4.2,0.7,5.7,2.2c1.5,1.5,2.3,3.2,2.3,5.2
	c0,1.6-0.4,3.2-1.2,4.8c-0.8,1.6-2.1,3.8-4,6.6l-22.5,34.5v28.5c0,3.7-0.9,6.5-2.6,8.3c-1.7,1.8-3.9,2.8-6.5,2.8
	c-2.7,0-4.9-0.9-6.6-2.7C1965.2,419.4,1964.4,416.6,1964.4,412.9z"/>
</svg>
