<?xml version="1.0" encoding="utf-8"?>
<!-- Generator: Adobe Illustrator 23.0.0, SVG Export Plug-In . SVG Version: 6.00 Build 0)  -->
<svg version="1.1" id="Layer_1" xmlns="http://www.w3.org/2000/svg" xmlns:xlink="http://www.w3.org/1999/xlink" x="0px" y="0px"
	 viewBox="0 0 2369.6 447.3" style="enable-background:new 0 0 2369.6 447.3;" xml:space="preserve">
<style type="text/css">
	.st0{fill:#091B2A;}
	.st1{fill:#00AF73;}
</style>
<g>
	<g>
		<path class="st0" d="M2043,74.2c0-10.6,2.6-20.5,7.8-29.6c5.2-9.1,12.4-16.3,21.6-21.5c9.2-5.2,19.1-7.9,29.8-7.9
			s20.6,2.6,29.7,7.9c9.2,5.2,16.3,12.4,21.5,21.5s7.8,19,7.8,29.6c0,10.4-2.5,20.1-7.5,29.1c-5,9.1-12.1,16.3-21.3,21.8
			c-9.2,5.5-19.3,8.3-30.3,8.3c-10.9,0-21-2.7-30.2-8.2c-9.2-5.4-16.3-12.7-21.4-21.8C2045.6,94.5,2043,84.7,2043,74.2z
			 M2052.6,74.2c0,9,2.2,17.4,6.7,25.1c4.4,7.7,10.5,13.7,18.1,18.1s15.9,6.5,24.8,6.5c8.9,0,17.2-2.2,24.9-6.7s13.7-10.5,18-18.1
			c4.4-7.6,6.5-16,6.5-25s-2.2-17.3-6.5-24.9c-4.4-7.6-10.4-13.6-18-18s-16-6.6-24.9-6.6s-17.2,2.2-24.8,6.5
			c-7.7,4.3-13.7,10.4-18.1,18C2054.8,56.9,2052.6,65.2,2052.6,74.2z M2089.9,80.1v26.7h-11.7v-67h23c8.5,0,15.1,1.7,19.8,5.2
			c4.7,3.4,7,8.5,7,15s-3.6,11.4-10.7,14.8c6.8,2.6,10.2,8,10.2,16.1v4.8c0,4.5,0.5,7.8,1.4,9.8v1.3h-12.1
			c-0.8-1.9-1.2-5.3-1.2-10.1c0-4.9-0.1-7.8-0.2-8.6c-0.9-5.1-4.5-7.7-10.9-7.9h-14.6V80.1z M2089.9,70h13c4-0.1,7.2-1,9.7-2.8
			c2.4-1.7,3.7-4,3.7-6.8c0-3.8-1.1-6.5-3.2-8.1c-2.2-1.6-6-2.4-11.6-2.4H2090L2089.9,70L2089.9,70z"/>
	</g>
	<g>
		<path class="st1" d="M324.9,34.5c5.7-8.5,0.5-19.3-9.4-19.3h-89.8h-40h-29.4c-33.5,0-60.2,8.9-79.9,26.7
			c-19.7,17.7-31,43.1-34,76.3l0,0L34.8,205l0,0c-2.8,33.2,4.1,58.6,20.7,76.3c16.7,17.8,41.8,26.7,75.3,26.7h36.4v-0.2
			c7.2-1,11.1-5.4,11.8-13.1l3.7-42.6c0.7-7.7-5-14-12.8-14h-20.2c-13.1,0-22.3-2.9-27.6-8.6c-5.2-5.7-7.2-15.4-6.1-29l6.8-77.8
			c1.2-13.6,4.9-23.2,11.1-28.9c6.2-5.7,15.9-8.6,29.1-8.6h16.6h26.6h64.2c12.7,0,25-6.7,32.3-17.7L324.9,34.5z"/>
		<path class="st1" d="M19,405c-5.7,8.5-0.5,19.3,9.4,19.3h92.1h40h29.4c33.5,0,60.2-8.9,79.9-26.7c19.7-17.7,31-43.1,34-76.3l0,0
			l7.6-86.8l0,0c2.8-33.2-4.1-58.6-20.7-76.3c-16.7-17.8-41.8-26.7-75.3-26.7H179v0.2c-7.2,1-11.1,5.4-11.8,13.1l-3.7,42.6
			c-0.7,7.7,5,14,12.8,14h20.4c13.1,0,22.3,2.9,27.6,8.6c5.2,5.7,7.2,15.4,6.1,28.9l-6.8,77.8c-1.2,13.6-4.9,23.2-11.1,28.9
			c-6.2,5.7-15.9,8.6-29.1,8.6h-16.7h-26.6H73.6c-12.7,0-25,6.7-32.3,17.7L19,405z"/>
	</g>
	<path class="st0" d="M566.7,424.3h-208c-8.9,0-13-4.4-12.2-13.4L380,28.6c0.8-8.9,5.6-13.4,14.5-13.4h208c8.5,0,12.3,4.4,11.6,13.4
		l-3.8,43.3c-0.8,8.9-5.4,13.4-13.9,13.4h-133c-5.1,0-7.8,2.3-8.2,7L448,175c-0.4,4.7,1.9,7,7,7h108.8c8.9,0,13,4.5,12.2,13.4
		l-3.8,43.3c-0.8,8.9-5.6,13.4-14.5,13.4H448.9c-5.1,0-7.8,2.3-8.2,7l-7.7,88.4c-0.4,4.7,1.9,7,7,7h132.9c8.5,0,12.3,4.5,11.6,13.4
		l-3.8,43.3C579.8,419.8,575.2,424.3,566.7,424.3"/>
	<path class="st0" d="M791.1,424.3h-69.3c-33.5,0-58.6-8.9-75.3-26.7c-16.7-17.8-23.6-43.5-20.6-77l17.6-201.7
		c2.9-33.5,14.3-59.2,34.1-77s46.4-26.7,79.9-26.7h69.3c33.1,0,58.1,9,74.9,27c16.9,18,23.9,43.6,21,76.6l-2.6,29.9
		c-0.8,9.3-5.9,14-15.2,14h-53.4c-8.9,0-13-4.7-12.1-14l2.3-26.1c1.2-13.6-0.8-23.2-6.1-28.9c-5.2-5.7-14.6-8.6-28.2-8.6h-43.3
		c-13.1,0-22.8,2.9-29.1,8.6c-6.2,5.7-9.9,15.4-11.1,28.9l-17,194c-1.2,13.6,0.8,23.2,6.1,28.9c5.2,5.7,14.4,8.6,27.6,8.6h43.3
		c13.6,0,23.5-2.9,29.7-8.6s9.9-15.4,11.1-28.9l2.3-26.1c0.8-9.3,5.7-14,14.6-14H895c9.3,0,13.6,4.7,12.8,14l-2.6,29.9
		c-2.9,33.1-14.4,58.6-34.4,76.6C850.7,415.3,824.2,424.3,791.1,424.3"/>
	<path class="st0" d="M1086.7,424.3h-53.4c-9.3,0-13.6-4.4-12.8-13.4l27.9-318.7c0.4-4.7-1.7-7-6.4-7h-72.5c-8.9,0-13-4.4-12.2-13.4
		l3.8-43.3c0.8-8.9,5.6-13.4,14.5-13.4H1216c8.9,0,13,4.4,12.2,13.4l-3.8,43.3c-0.8,8.9-5.6,13.4-14.5,13.4h-72.5
		c-5.1,0-7.8,2.3-8.2,7l-27.9,318.7C1100.4,419.8,1095.6,424.3,1086.7,424.3"/>
	<path class="st0" d="M1350.2,28.6l-33.5,382.3c-0.8,8.9-5.6,13.4-14.5,13.4h-54.1c-8.9,0-13-4.5-12.2-13.4l33.5-382.3
		c0.8-8.9,5.6-13.4,14.5-13.4h54.1C1346.9,15.2,1351,19.7,1350.2,28.6"/>
	<path class="st0" d="M1817.1,354.3h45.2c13.6,0,23.5-2.9,29.7-8.6s9.9-15.4,11.1-28.9l17-194c1.2-13.6-0.8-23.2-6.1-28.9
		c-5.2-5.7-14.6-8.6-28.2-8.6h-45.2c-13.6,0-23.4,2.9-29.4,8.6s-9.6,15.4-10.8,28.9l-17,194c-1.2,13.6,0.7,23.2,5.7,28.9
		C1794.3,351.4,1803.5,354.3,1817.1,354.3 M1869.5,424.3h-71.2c-33.5,0-58.6-8.9-75.3-26.7c-16.7-17.8-23.6-43.5-20.6-77l17.6-201.7
		c2.9-33.5,14.3-59.2,34.1-77c19.8-17.8,46.4-26.7,79.9-26.7h71.2c33.5,0,58.6,8.9,75.3,26.7c16.7,17.8,23.6,43.5,20.6,77
		l-17.6,201.7c-2.9,33.5-14.3,59.2-34.1,77C1929.7,415.4,1903,424.3,1869.5,424.3"/>
	<path class="st0" d="M1599.2,152h54.1c8.9,0,13.8-4.7,14.6-14l1.7-19.1c2.9-33.1-4-58.6-20.6-76.7c-16.7-18-41.5-27-74.6-27H1507
		c-33.5,0-60.2,8.9-79.9,26.7c-19.8,17.8-31.2,43.5-34.1,77l-17.6,201.7c-2.9,33.5,3.9,59.2,20.6,77s41.8,26.7,75.3,26.7h67.4
		c33.1,0,59.5-9,79.3-27s31.2-43.6,34.1-76.7l9.3-106.2c0.9-9.8-3.6-14.6-13.4-14.6h-111.3h-14.6c-9.9,0-17,10.7-12.8,19.3l16.4,33
		c5.4,10.9,16.6,17.7,29.2,17.7h13.8c4.7,0,6.8,2.3,6.4,7l-3.5,40.1c-1.2,13.6-4.8,23.2-10.8,29c-6,5.7-15.8,8.6-29.4,8.6H1490
		c-13.1,0-22.3-2.9-27.6-8.6c-5.2-5.7-7.2-15.4-6.1-29l17-194c1.2-13.6,4.9-23.2,11.1-28.9s15.9-8.6,29.1-8.6h41.4
		c13.6,0,22.9,2.9,27.9,8.6s6.9,15.4,5.7,28.9l-1.3,15.3C1586.2,147.3,1590.3,152,1599.2,152"/>
</g>
</svg>
