<?xml version="1.0" standalone="no"?><!DOCTYPE svg PUBLIC "-//W3C//DTD SVG 1.1//EN" "http://www.w3.org/Graphics/SVG/1.1/DTD/svg11.dtd"><svg t="1603209873052" class="icon" viewBox="0 0 1024 1024" version="1.1" xmlns="http://www.w3.org/2000/svg" p-id="11578" xmlns:xlink="http://www.w3.org/1999/xlink" width="50" height="50"><defs><style type="text/css"></style></defs><path d="M512 0C230.4 0 0 230.4 0 512c0 102.4 30.72 194.56 81.92 276.48 0 0 76.8 102.4 40.96 168.96C97.28 998.4 25.6 1024 25.6 1024H512c281.6 0 512-230.4 512-512S793.6 0 512 0z m266.24 824.32c-51.2 51.2-230.4 5.12-404.48-174.08-179.2-179.2-225.28-358.4-174.08-404.48 40.96-40.96 92.16-112.64 163.84-20.48 76.8 92.16 40.96 117.76-5.12 163.84-30.72 30.72 35.84 107.52 102.4 174.08 66.56 66.56 143.36 128 174.08 97.28 40.96-40.96 66.56-81.92 163.84-5.12 92.16 76.8 25.6 128-20.48 168.96z" fill="#00a907" p-id="11579"></path></svg>