<?xml version="1.0" standalone="no"?><!DOCTYPE svg PUBLIC "-//W3C//DTD SVG 1.1//EN" "http://www.w3.org/Graphics/SVG/1.1/DTD/svg11.dtd"><svg t="1603209804352" class="icon" viewBox="0 0 1024 1024" version="1.1" xmlns="http://www.w3.org/2000/svg" p-id="6178" xmlns:xlink="http://www.w3.org/1999/xlink" width="50" height="50"><defs><style type="text/css"></style></defs><path d="M480.285183 305.866223l157.275 0c5.03876 0 7.561209-2.51938 7.561209-7.55814l0-9.579169c0-4.033873-0.539282-6.950296-1.514493-8.823969-1.00898-1.835811-3.743254-2.772136-8.101515-2.772136l-155.726737 0c-2.700505 0-4.536316 0.759293-5.544273 2.269693-1.00898 1.511423-1.511423 4.608971-1.511423 9.326413l0 9.579169C472.72295 303.346843 475.243353 305.866223 480.285183 305.866223zM480.285183 386.018727 635.036709 386.018727c6.700609 0 10.084683-4.067642 10.084683-12.098549l0-10.587126c0-5.03876-2.52245-7.561209-7.561209-7.561209L480.285183 355.771843c-5.042853 0-7.562233 2.52245-7.562233 7.561209l0 15.124466C472.72295 383.495254 475.243353 386.018727 480.285183 386.018727zM851.524299 103.820554C792.37413 89.796142 665.460626 64.747653 513.502725 64.747653c-152.635329 0-282.669918 25.27157-342.951863 39.259142-21.040199 4.882194-35.919071 23.652699-35.919071 45.251623l0 351.421768c0 138.382721 71.683623 266.890536 189.43035 339.591325l189.440583 116.967992L699.904089 840.579527c116.571972-72.957639 187.371458-200.791096 187.371458-338.311169l0-353.235067C887.275547 127.495766 872.480586 108.789729 851.524299 103.820554zM413.746744 273.605471c0-20.48659 3.852748-34.096563 11.629875-40.830941 7.704472-6.731308 24.985044-10.081613 51.883671-10.081613l177.437202 0c17.46579 0 30.066783 3.962242 37.806047 11.845793 7.743358 7.886621 11.597129 20.922519 11.597129 39.066761l0 115.435079c0 15.774265-3.208065 28.374234-9.580193 37.772278 3.025916 0 6.300496 0.826831 9.794064 2.51938 3.566222 1.658779 6.735401 3.925403 9.613962 6.80601 2.843768 2.844791 5.219885 6.04774 7.020904 9.579169 1.873674 3.52836 2.77316 6.984065 2.77316 10.331299 0 7.059789-4.28356 14.440897-12.81998 22.183232-8.567119 7.739265-22.428825 17.820877-41.587164 30.244838-2.700505 1.692548-4.02978 3.097548-4.02978 4.282536 0 1.152243 1.186012 2.413979 3.566222 3.747347 13.426801 7.739265 24.626887 14.255679 33.519418 19.657712 8.894577 5.40101 15.554254 9.759271 19.912515 13.106506 9.073656 6.05081 13.609972 12.748349 13.609972 20.163225 0 7.059789-3.203972 14.296611-9.580193 21.711488-6.405897 7.059789-13.178137 10.587126-20.414959 10.587126-7.198959 0-16.200984-3.384074-26.966165-10.081613-47.709605-30.243815-102.33062-61.643965-163.827229-94.262874-11.774161-6.734378-17.643845-13.431917-17.643845-20.163225 0-7.058766 3.203972-14.258749 9.613962-21.677719 6.734378-7.704472 13.608949-11.592013 20.630876-11.592013 4.393054 0 8.748245 1.186012 13.106506 3.52836l60.526515 31.251771c3.709485 2.342348 6.194072 3.527336 7.562233 3.527336 3.346211 0 13.250792-6.189979 29.702486-18.651802 16.817014-12.743232 25.206078-19.656689 25.206078-20.664645 0-1.333368-2.486634-2.016937-7.563256-2.016937L480.318952 440.929338c-5.03876 0-7.561209 2.520403-7.561209 7.562233l0 84.182284c0 5.03876 1.76725 7.559163 5.256724 7.559163 3.566222 0 12.026918-1.835811 25.458835-5.545296 6.731308-2.012843 12.20395-3.743254 16.382109-5.253654 4.210905-1.515516 7.814989-2.700505 10.873652-3.566222 3.025916-0.793062 5.507434-1.5104 7.562233-2.016937 2.013867-0.50142 3.996011-0.7552 6.04774-0.7552 8.714476 0 15.267728 3.709485 19.659759 11.089569 8.352225 13.790074 8.714476 24.841781 0.971118 33.269731-3.996011 4.033873-13.934361 9.435906-29.703509 16.132422-17.175171 7.380084-33.776268 12.275581-49.941436 14.617929-8.389064 1.333368-15.555278 2.304486-21.424962 3.025916-5.865591 0.683569-10.692526 0.971118-14.364149 0.971118-13.069667 0-22.323425-3.744277-27.724435-11.305487-5.40101-7.561209-8.064676-19.947308-8.064676-37.049824L413.746744 273.605471zM266.04682 239.327784c1.333368-4.02978 3.278673-7.810896 5.798053-11.377118 2.51938-3.565199 5.616928-6.371104 9.326413-8.570189 3.709485-2.193968 8.064676-3.275603 13.106506-3.275603 10.081613 0 24.37413 5.726421 42.8489 17.137309 9.072633 5.726421 17.137309 10.769274 24.191982 15.124466 7.059789 4.393054 13.035898 8.388041 17.896602 12.097526 4.861728 3.709485 8.498558 7.490601 10.836813 11.343349 2.342348 3.886517 3.52836 8.17417 3.52836 12.887518 0 8.389064-3.203972 15.951297-9.576099 22.685675-6.049786 7.021927-12.675694 10.583033-19.912515 10.583033-7.237845 0-13.537318-2.050706-18.900465-6.04774-12.782118-9.756201-35.143405-24.01495-67.044976-42.847877-9.431813-5.40101-14.111392-11.630898-14.111392-18.651802C264.033977 247.071142 264.717546 243.361657 266.04682 239.327784zM738.161415 646.88199c-0.539282 5.870708-2.269693 10.836813-5.29561 14.870686-3.346211 4.714372-7.739265 7.883551-13.068643 9.576099-5.076622 1.692548-19.8767 2.700505-44.3593 3.025916-24.841781 1.00898-47.709605 1.5104-68.555375 1.5104-41.010019 0-75.359338-0.7552-103.050004-2.231831-27.762297-1.511423-49.148373-3.959172-64.272839-7.309476-30.243815-6.04774-54.296627-17.820877-72.082712-35.286668-4.030803-3.996011-8.064676-6.04774-12.098549-6.04774-3.705392 0-7.414877 1.333368-11.089569 4.033873-3.021823 3.021823-9.575076 11.088546-19.656689 24.196075-9.398044 13.103436-16.132422 20.990057-20.163225 23.690562-3.818979 2.628874-9.004071 3.996011-15.735379 3.996011-3.351328 0-6.949272-0.7552-10.836813-2.270716-3.889587-1.5104-7.417947-3.63376-10.587126-6.299473-3.203972-2.700505-5.798053-5.870708-7.814989-9.576099-2.013867-3.747347-3.021823-7.742335-3.021823-12.097526 0-5.076622 1.184989-9.760295 3.527336-14.153348 2.701528-4.714372 9.579169-13.103436 20.668739-25.201985 5.688559-6.05081 11.844769-12.097526 18.399045-18.149359 6.553253-6.04774 13.178137-11.916401 19.908422-17.642822 1.657756-1.654686 2.51938-3.705392 2.51938-6.04774L321.49569 436.424744c0-4.679579-0.574075-7.810896-1.763157-9.326413-1.186012-1.5104-3.275603-2.2656-6.300496-2.2656l-27.217898 0c-9.076726 0-16.491603-2.700505-22.180162-8.064676-5.726421-5.367241-8.570189-12.098549-8.570189-20.167319 0-8.063653 2.843768-14.798031 8.570189-20.162202 5.688559-5.364171 13.103436-8.064676 22.180162-8.064676l54.942333 0c15.124466 0 25.635867 4.464685 31.505551 13.357216 5.903453 8.92937 8.823969 23.116487 8.823969 42.594097l0 148.168598c0 1.692548 0.50142 3.202948 1.5104 4.536316 1.333368 2.050706 6.878664 6.228865 16.635889 12.637832 5.362124 3.384074 10.908444 6.405897 16.634866 9.072633 5.726421 2.662643 11.917424 5.03876 18.685571 7.055696 6.734378 2.304486 13.862729 4.177136 21.423939 5.510504 7.561209 1.329275 15.554254 2.338255 23.943318 3.021823 8.389064 0.687662 19.301602 1.190105 32.767288 1.515516 13.430894 0.35918 29.378098 0.539282 47.886637 0.539282 18.795065 0 36.620036-0.252757 53.399187-0.7552 16.814967-0.505513 32.94432-1.079588 48.426943-1.76725 15.44476-0.683569 27.112498-1.186012 35.033911-1.5104 7.886621-0.360204 12.170181-0.502443 12.81998-0.502443 6.40999-0.721431 11.773138 0.788969 16.128329 4.536316 4.358261 3.709485 7.490601 8.245801 9.325389 13.609972C737.980289 635.358539 738.631112 641.013329 738.161415 646.88199z" p-id="6179" fill="#00a907"></path></svg>