<?xml version="1.0" standalone="no"?><!DOCTYPE svg PUBLIC "-//W3C//DTD SVG 1.1//EN" "http://www.w3.org/Graphics/SVG/1.1/DTD/svg11.dtd"><svg t="1603209934126" class="icon" viewBox="0 0 1024 1024" version="1.1" xmlns="http://www.w3.org/2000/svg" p-id="15591" xmlns:xlink="http://www.w3.org/1999/xlink" width="50" height="50"><defs><style type="text/css"></style></defs><path d="M638.19719 605.532233c-7.099698-5.293563-13.701047-11.44261-19.130709-18.60473 0-20.630876 0-74.210166 0-95.016027 7.079232-1.363044 13.483082-21.50478 19.130709-26.623357 15.909341-14.499226 28.059056 9.049097 45.916772-10.394744 2.62478-2.742461 5.349845-4.960988 7.77508-7.337105l9.704013-7.686053 0-93.146447-25.335015 23.041786-40.309054 36.493146-8.928347 10.412141-33.30964 0c-2.90312 4.26207-7.573489 6.988158-12.806677 6.988158l-43.709501 0c-8.432043 0-15.232936-7.319709-15.232936-15.862269 0-8.700149 6.800893-15.687284 15.232936-15.687284l43.709501 0c4.951779 0 9.4093 2.393513 12.229532 6.306636l21.656229 0 61.845557-51.184753 24.957415-20.980847 0-10.568706c0.398066 0 0.577145-0.174985 0.577145-0.174985 0.398066-11.774161 0.398066-23.024389 0.398066-34.292014 0-7.843642-0.398066-19.443841-0.974188-31.898501-1.073448-35.655058-4.753257-81.896218-13.403265-97.076966-8.729825-15.355733-22.431895-26.780947-43.88858-32.912597-1.849114-0.681522-4.176113-1.030469-6.105045-1.38044-34.085306-8.525164-73.220628-6.306636-107.782795-22.342868l0 0 0 0-37.186947 0c-34.283828 16.037255-73.519434 13.818727-107.405195 22.342868-2.227738 0.348947-4.275373 0.698918-6.124488 1.38044-21.454638 6.131651-35.437094 17.556864-43.789319 32.912597-8.729825 15.180747-12.608156 61.421908-13.780865 97.251951-0.474814 12.455683-0.673335 23.880897-0.673335 31.724539-0.198521 11.267625 0 22.517853 0.275269 34.292014 0 0 0.198521 0.174985 0.398066 0.174985l0 124.189464c3.104711 2.725064 6.204305 4.787026 9.704013 7.686053 2.823302 2.376117 5.449106 4.594645 8.073886 7.337105 18.056238 19.443841 29.80891-4.105504 45.916772 10.394744 5.449106 5.118578 11.752672 25.260314 19.031449 26.623357 0 20.805862 0 74.384128 0 95.016027-5.329379 7.16212-11.93175 13.311167-19.031449 18.60473-67.393923 49.472761-204.28978 27.967982-248.278643 102.003162-13.104459 23.041786-9.724479 52.547797-17.777899 88.884376 0 0.348947 0 0.681522 0 1.030469 0 2.550079 0 5.8001 0 8.525164 0 0.174985 0 0.523933 0 0.681522 0 0 0.099261 0 0.297782 0 3.778046 43.673685 81.851193 81.372286 195.460694 100.8325 0.775666-0.174985 1.452071-0.855484 2.227738-0.855484 52.240805 9.049097 112.058169 13.992689 175.475524 13.992689l0 0 37.186947 0 0 0c0.676405 0 1.351787 0 1.650593 0-6.423293-10.586103-11.474332-21.50478-14.676257-33.278941-3.480264-11.93175-5.329379-24.736381-5.329379-37.6986 0-83.084277 76.502371-150.463873 171.179684-150.463873 84.098373 0 154.097634 53.404304 168.475086 123.857912 1.849114 8.700149 2.62478 17.574261 2.62478 26.605961 0 4.26207-0.198521 8.367575-0.596588 12.96222 30.306236-16.875343 48.462758-35.480073 50.113351-55.954383 0.198521 0 0.198521 0 0.3776 0 0-0.157589 0-0.506537 0-0.681522 0-2.725064 0-5.974062 0-8.525164 0-0.348947 0-0.681522 0-1.030469-8.05342-36.33658-4.652973-65.841567-18.056238-88.884376C842.48697 633.500215 705.47241 655.004995 638.19719 605.532233z" p-id="15592" fill="#00a907"></path><path d="M685.672458 732.956368c-70.698179 0-128.265292 50.66082-128.265292 113.096824 0 9.730619 1.349741 19.111267 3.977591 28.160363 2.62171 8.525164 6.40078 17.050328 11.073196 24.736381 21.738094 35.480073 64.371076 59.867506 113.214505 59.867506 67.192332 0 122.157177-45.542242 127.686101-103.208617 0.198521-3.231601 0.676405-6.480598 0.676405-9.555633 0-6.813173-0.775666-13.643742-1.928932-20.299325C801.128003 773.381056 748.787938 732.956368 685.672458 732.956368zM753.34165 856.290347c0 3.581572-3.678786 7.005554-8.153704 7.005554l-45.141106 0 0 25.575492 0 14.167674c0 3.755534-3.699252 7.16212-8.252964 7.16212l-13.601786 0c-4.473895 0-8.05342-3.406586-8.05342-7.16212L670.13867 893.482411l0-30.187533-45.340651 0c-4.374634 0-7.875365-3.423983-7.875365-7.005554l0-12.280698c0-3.755534 3.499707-6.988158 7.875365-6.988158l45.340651 0 0-39.917128c0-3.930519 3.579525-7.005554 8.05342-7.005554l13.601786 0c4.553713 0 8.252964 3.075035 8.252964 7.005554l0 39.917128 45.141106 0c4.473895 0 8.153704 3.231601 8.153704 6.988158L753.34165 856.290347z" p-id="15593" fill="#00a907"></path><path d="M262.896572 444.248943c0.874927 0 1.351787-0.331551 1.829671-0.506537 4.951779 15.70468 21.178345 27.129894 40.488133 27.129894l0-30.711466 0-70.960145 0-41.629119c-8.726755 0-16.784268 2.218528-23.385617 6.481621l-0.099261-91.276866c0-0.506537-4.852518-67.204611 43.99091-114.63383 30.960129-29.523407 76.697823-45.210691 136.515187-46.747697l103.408161 0.506537c57.59065 1.711991 102.632495 17.399275 132.543735 46.24116 49.136094 47.429219 44.184315 114.127294 43.98477 114.63383l0 91.276866c-6.503111-4.26207-14.655791-6.481621-23.303752-6.481621l0 41.629119 0 70.960145 0 30.711466c19.525706 0 36.229133-11.949146 40.783869-28.317952 0.579191 0 1.073448 0.331551 1.650593 0.331551 9.227152 0 16.803711-6.813173 16.803711-15.005762l0-65.510016c0-8.367575-7.576559-15.005762-16.803711-15.005762-0.198521 0-0.198521 0-0.3776 0L760.925373 243.456824c0.3776-2.725064 5.329379-73.860195-48.859801-126.059044-32.911574-31.391964-80.296791-48.966225-140.873448-52.04126l0.179079 0-3.678786 0c-1.746784 0-3.499707-0.174985-5.249561-0.174985l0 0.174985-100.783381-0.174985c-64.967664 1.363044-115.160833 18.936281-149.742443 52.216245-54.070476 52.198849-49.019437 123.33398-48.837288 126.059044l0 105.270579c-0.182149 0-0.182149 0-0.182149 0-9.525957 0-17.002232 6.655584-17.002232 14.8318l0 65.685002C245.893316 437.435771 253.370615 444.248943 262.896572 444.248943z" p-id="15594" fill="#00a907"></path></svg>