<?xml version="1.0" standalone="no"?><!DOCTYPE svg PUBLIC "-//W3C//DTD SVG 1.1//EN" "http://www.w3.org/Graphics/SVG/1.1/DTD/svg11.dtd"><svg id="ebsfv6r3jizt1" xmlns="http://www.w3.org/2000/svg" xmlns:xlink="http://www.w3.org/1999/xlink" viewBox="0 0 1024 1024" shape-rendering="geometricPrecision" text-rendering="geometricPrecision"><style><![CDATA[#ebsfv6r3jizt2_tr {animation: ebsfv6r3jizt2_tr__tr 2000ms linear infinite normal forwards}@keyframes ebsfv6r3jizt2_tr__tr { 0% {transform: translate(512px,512px) rotate(0deg)} 100% {transform: translate(512px,512px) rotate(360deg)} }]]></style><g id="ebsfv6r3jizt2_tr" transform="translate(512,512) rotate(0)"><g id="ebsfv6r3jizt2" transform="scale(-1,1) translate(-512,-512)"><path id="ebsfv6r3jizt3" d="M390.233825,229.124491C400.545685,247.682245,394.365755,271.449824,376.436772,282.192842C358.489825,292.953824,335.566597,286.612210,325.236772,268.054456L238.574035,112.208842C228.244210,93.651088,234.406175,69.883509,252.353123,59.140491C270.300070,48.379509,293.223298,54.721123,303.553123,73.278877L390.251789,229.124491Z" fill="rgb(205,205,205)" stroke="none" stroke-width="1"/><path id="ebsfv6r3jizt4" d="M785.461895,911.791158C795.773755,930.348912,789.593825,954.116491,771.664842,964.859509C753.717895,975.620491,730.794667,969.278877,720.464842,950.721123L633.766175,794.875509C623.454315,776.317755,629.634245,752.550176,647.563228,741.807158C665.510175,731.046176,688.433403,737.387790,698.763228,755.945544L785.461895,911.791158Z" fill="rgb(169,169,169)" stroke="none" stroke-width="1"/><path id="ebsfv6r3jizt5" d="M794.875509,390.233825C776.317755,400.545685,752.550176,394.365755,741.807158,376.436772C731.046176,358.489825,737.387790,335.566597,755.945544,325.236772L911.791158,238.538105C930.348912,228.226245,954.116491,234.406175,964.859509,252.335158C975.620491,270.282105,969.278877,293.205333,950.721123,303.535158L794.875509,390.233825Z" fill="rgb(187,187,187)" stroke="none" stroke-width="1"/><path id="ebsfv6r3jizt6" d="M112.208842,785.443930C93.651088,795.773755,69.883509,789.611790,59.140491,771.664842C48.379509,753.717895,54.721123,730.794667,73.278877,720.464842L229.124491,633.766175C247.682245,623.454315,271.449824,629.634245,282.192842,647.563228C292.953824,665.528140,286.612210,688.433403,268.054456,698.763228L112.208842,785.425965Z" fill="rgb(153,153,153)" stroke="none" stroke-width="1"/><path id="ebsfv6r3jizt7" d="M698.763228,268.054456C688.433403,286.612210,665.510175,292.953824,647.563228,282.192842C629.616281,271.449824,623.454316,247.700210,633.784140,229.124491L720.464842,73.278877C730.794667,54.721123,753.717895,48.379509,771.664842,59.140491C789.611789,69.883509,795.773754,93.633123,785.443930,112.208842L698.763228,268.054456Z" fill="rgb(194,194,194)" stroke="none" stroke-width="1"/><path id="ebsfv6r3jizt8" d="M303.535158,950.721123C293.205333,969.278877,270.282105,975.620491,252.335158,964.877474C234.388211,954.098527,228.226246,930.348913,238.538105,911.791158L325.236772,755.945544C335.566597,737.387790,358.489825,731.046176,376.436772,741.807158C394.383719,752.550176,400.545684,776.299790,390.233825,794.875509L303.535158,950.721123Z" fill="rgb(157,157,157)" stroke="none" stroke-width="1"/><path id="ebsfv6r3jizt9" d="M755.945544,698.763228C737.387790,688.433403,731.046176,665.510175,741.807158,647.563228C752.550176,629.616281,776.299790,623.454316,794.875509,633.784140L950.721123,720.464842C969.278877,730.794667,975.620491,753.717895,964.859509,771.664842C954.116491,789.611789,930.366877,795.773754,911.791158,785.443930L755.945544,698.763228Z" fill="rgb(175,175,175)" stroke="none" stroke-width="1"/><path id="ebsfv6r3jizt10" d="M73.278877,303.535158C54.721123,293.205333,48.379509,270.282105,59.140491,252.335158C69.883509,234.388211,93.633123,228.226246,112.208842,238.538105L268.054456,325.236772C286.612210,335.566597,292.953824,358.489825,282.192842,376.436772C271.449824,394.383719,247.700210,400.545684,229.124491,390.233825L73.278877,303.535158Z" fill="rgb(209,209,209)" stroke="none" stroke-width="1"/><path id="ebsfv6r3jizt11" d="M810.397193,556.912281C789.468070,556.912281,772.491228,536.791579,772.491228,512C772.491228,487.208421,789.468070,467.087719,810.397193,467.087719L986.094035,467.087719C1007.023158,467.087719,1024,487.208421,1024,512C1024,536.791579,1007.023158,556.912281,986.094035,556.912281L810.397193,556.912281Z" fill="rgb(182,182,182)" stroke="none" stroke-width="1"/><path id="ebsfv6r3jizt12" d="M37.905965,556.912281C16.976842,556.912281,0,536.791579,0,512C0,487.208421,16.976842,467.087719,37.905965,467.087719L213.602807,467.087719C234.531930,467.087719,251.508772,487.208421,251.508772,512C251.508772,536.791579,234.531930,556.912281,213.602807,556.912281L37.905965,556.912281Z" fill="rgb(148,148,148)" stroke="none" stroke-width="1"/><path id="ebsfv6r3jizt13" d="M467.087719,810.397193C467.087719,789.468070,487.208421,772.491228,512,772.491228C536.791579,772.491228,556.912281,789.468070,556.912281,810.397193L556.912281,986.094035C556.912281,1007.023158,536.791579,1024,512,1024C487.208421,1024,467.087719,1007.023158,467.087719,986.094035L467.087719,810.397193Z" fill="rgb(163,163,163)" stroke="none" stroke-width="1"/><path id="ebsfv6r3jizt14" d="M467.087719,37.905965C467.087719,16.976842,487.208421,0,512,0C536.791579,0,556.912281,16.976842,556.912281,37.905965L556.912281,213.602807C556.912281,234.531930,536.791579,251.508772,512,251.508772C487.208421,251.508772,467.087719,234.531930,467.087719,213.602807L467.087719,37.905965Z" fill="rgb(200,200,200)" stroke="none" stroke-width="1"/></g></g></svg>